<svg xmlns="http://www.w3.org/2000/svg" xmlns:xlink="http://www.w3.org/1999/xlink" width="512" zoomAndPan="magnify" viewBox="0 0 384 383.999986" height="512" preserveAspectRatio="xMidYMid meet" version="1.0"><defs><clipPath id="156946ff10"><path d="M 158.53125 -58.953125 L 441.179688 147.890625 L 225.472656 442.644531 L -57.175781 235.796875 Z M 158.53125 -58.953125 " clip-rule="nonzero"/></clipPath><clipPath id="aecec07fe1"><path d="M 9 8 L 369 8 L 369 369 L 9 369 Z M 9 8 " clip-rule="nonzero"/></clipPath><clipPath id="c128b1a996"><path d="M 158.53125 -58.953125 L 441.179688 147.890625 L 225.472656 442.644531 L -57.175781 235.796875 Z M 158.53125 -58.953125 " clip-rule="nonzero"/></clipPath><clipPath id="0d0ffe8a8f"><path d="M 441.320312 147.996094 L 158.671875 -58.851562 L -57.03125 235.902344 L 225.613281 442.75 Z M 441.320312 147.996094 " clip-rule="nonzero"/></clipPath><clipPath id="386a085361"><rect x="0" width="384" y="0" height="384"/></clipPath><clipPath id="17df21a800"><path d="M 58.878906 50 L 292.128906 50 L 292.128906 342 L 58.878906 342 Z M 58.878906 50 " clip-rule="nonzero"/></clipPath></defs><path fill="#4f362a" d="M 383.964844 193.433594 C 383.734375 160.675781 374.015625 129.757812 357.484375 103.199219 C 335.59375 59.726562 297.097656 25.210938 248.878906 9.824219 C 175.710938 -13.441406 94.199219 12.121094 46.289062 71.742188 C 26.085938 96.847656 13.304688 126.542969 8.097656 157.386719 C -4.148438 204.992188 2.742188 257.113281 29.910156 299.972656 C 71.238281 365.179688 151.527344 397.324219 226.53125 378.957031 C 251.789062 372.757812 274.746094 361.351562 294.492188 345.96875 C 347.378906 314.128906 383.429688 257.496094 383.964844 193.433594 Z M 373.632812 188.460938 C 373.402344 223.4375 363.070312 256.957031 345.082031 285.507812 C 358.628906 259.867188 366.359375 230.859375 366.589844 200.78125 C 365.976562 122.945312 315.3125 52.304688 240.765625 28.5 C 223.238281 22.914062 205.175781 20.15625 187.191406 20.082031 C 204.871094 19.238281 222.78125 20.847656 240.230469 25.054688 C 287.910156 36.382812 328.550781 66.230469 353.578125 106.03125 C 366.207031 131.132812 373.402344 159.222656 373.632812 188.460938 Z M 246.8125 361.507812 C 229.820312 366.785156 212.296875 369.390625 194.921875 369.542969 C 140.582031 368.46875 87.234375 344.667969 52.105469 301.65625 C 5.574219 244.710938 0.367188 162.667969 40.855469 100.980469 C 61.136719 70.210938 90.296875 47.480469 123.359375 34.085938 C 156.042969 22.378906 192.242188 20.082031 227.066406 28.882812 C 306.433594 49.011719 362 121.875 362.609375 203.308594 C 362.304688 242.339844 349.292969 279.613281 326.792969 309.769531 C 305.746094 333.417969 278.421875 351.710938 246.8125 361.507812 Z M 310.335938 328.902344 C 305.132812 334.183594 299.546875 339.15625 293.652344 343.75 C 283.855469 349.566406 273.523438 354.542969 262.578125 358.445312 C 280.105469 351.019531 296.179688 340.996094 310.335938 328.902344 Z M 11.847656 155.320312 C 16.210938 138.40625 23.097656 121.949219 32.589844 106.796875 C 42.84375 90.265625 55.703125 75.875 70.398438 63.9375 C 63.050781 70.289062 56.238281 77.253906 49.964844 84.832031 C 23.328125 116.898438 9.628906 156.773438 9.78125 196.800781 C 8.863281 182.949219 9.628906 169.019531 11.847656 155.320312 Z M 36.339844 89.957031 C 77.441406 23.832031 158.414062 -8.621094 233.878906 9.980469 C 269.773438 18.78125 301 38.21875 324.800781 64.320312 C 304.828125 46.332031 280.71875 32.480469 254.160156 24.445312 C 211.222656 11.507812 164.996094 14.339844 124.277344 30.871094 C 92.824219 42.125 64.277344 61.714844 42.691406 88.351562 C 33.203125 100.0625 25.320312 112.84375 19.195312 126.234375 C 23.480469 113.683594 29.144531 101.515625 36.339844 89.957031 Z M 237.398438 372.984375 C 167.367188 394.1875 89.683594 369.464844 44.375 312.0625 C 20.039062 281.144531 7.105469 243.183594 6.183594 204.914062 C 8.632812 233.613281 17.742188 261.855469 33.585938 286.960938 C 68.179688 341.683594 129.714844 373.675781 193.007812 372.984375 C 208.542969 373.214844 224.234375 371.609375 239.617188 368.089844 C 252.78125 365.027344 265.410156 360.585938 277.351562 355 C 265.105469 362.578125 251.710938 368.625 237.398438 372.984375 Z M 308.195312 334.105469 C 315.925781 326.757812 323.042969 318.722656 329.472656 310.152344 C 359.242188 276.550781 377.152344 232.542969 377.535156 185.933594 C 377.457031 175.679688 376.539062 165.574219 374.78125 155.625 C 378.070312 168.636719 379.90625 182.105469 379.984375 196.035156 C 379.601562 251.90625 351.511719 302.265625 308.195312 334.105469 Z M 308.195312 334.105469 " fill-opacity="1" fill-rule="nonzero"/><g clip-path="url(#156946ff10)"><g><g clip-path="url(#386a085361)"><g clip-path="url(#aecec07fe1)"><g clip-path="url(#c128b1a996)"><g clip-path="url(#0d0ffe8a8f)"><path fill="#cf8673" d="M 252.320312 357.285156 C 251.363281 357.660156 250.457031 357.96875 249.4375 358.292969 L 248 358.800781 L 246.558594 359.304688 C 245.585938 359.566406 244.632812 359.9375 243.660156 360.203125 C 239.792969 361.363281 235.90625 362.414062 232.003906 363.355469 C 224.246094 365.175781 216.507812 366.429688 209.367188 367.144531 C 202.222656 367.855469 195.578125 368.152344 189.949219 368.125 C 184.320312 368.097656 179.730469 367.851562 176.488281 367.625 C 176.488281 367.625 176.03125 367.582031 175.292969 367.527344 C 174.945312 367.46875 174.488281 367.425781 173.921875 367.402344 C 173.402344 367.3125 172.835938 367.289062 172.144531 367.171875 C 169.5625 366.839844 166.269531 366.28125 163.152344 365.753906 C 156.851562 364.648438 151.238281 363.265625 153.667969 364.070312 C 153.667969 364.070312 153.667969 364.070312 153.386719 364.058594 C 153.148438 363.984375 152.695312 363.941406 151.71875 363.8125 C 150.789062 363.617188 149.339844 363.335938 147.242188 362.875 C 146.1875 362.585938 144.957031 362.273438 143.554688 361.925781 C 142.84375 361.699219 142.085938 361.535156 141.265625 361.324219 C 140.445312 361.113281 139.5625 360.859375 138.617188 360.554688 C 134.910156 359.496094 129.6875 357.71875 123.875 355.414062 C 123.101562 355.140625 122.4375 354.851562 121.710938 354.511719 C 120.984375 354.175781 120.210938 353.902344 119.484375 353.5625 C 117.984375 352.953125 116.464844 352.230469 114.886719 351.464844 C 114.09375 351.082031 113.367188 350.742188 112.578125 350.359375 C 111.785156 349.976562 110.996094 349.59375 110.269531 349.253906 C 108.734375 348.425781 107.152344 347.65625 105.621094 346.828125 C 99.480469 343.503906 93.683594 339.847656 88.835938 336.492188 C 83.921875 333.089844 80.066406 329.976562 77.605469 327.882812 C 77.605469 327.882812 77.929688 328.507812 77.582031 328.449219 C 77.40625 328.421875 77.042969 328.253906 76.347656 327.742188 C 75.648438 327.230469 74.679688 326.425781 73.234375 325.074219 C 70.40625 322.421875 66.683594 318.722656 63.898438 315.613281 C 63.210938 314.816406 62.480469 314.085938 61.921875 313.386719 C 61.316406 312.75 60.773438 312.160156 60.359375 311.660156 C 59.46875 310.617188 58.925781 310.027344 58.925781 310.027344 C 58.925781 310.027344 59.421875 310.679688 59.851562 311.289062 C 60.125 311.585938 60.347656 311.945312 60.492188 312.144531 C 60.699219 312.394531 60.78125 312.550781 60.78125 312.550781 C 60.78125 312.550781 61.898438 313.953125 63.078125 315.402344 C 63.636719 316.101562 64.238281 316.738281 64.71875 317.285156 C 65.132812 317.78125 65.464844 318.125 65.464844 318.125 C 65.464844 318.125 65.738281 318.417969 66.152344 318.917969 C 66.566406 319.414062 67.296875 320.144531 68.109375 321.03125 C 68.570312 321.46875 68.984375 321.964844 69.527344 322.554688 C 70.050781 323.039062 70.59375 323.628906 71.199219 324.265625 C 72.34375 325.492188 73.773438 326.734375 75.234375 328.195312 C 75.96875 328.925781 76.746094 329.59375 77.585938 330.304688 C 78.429688 331.019531 79.222656 331.792969 80.066406 332.507812 C 80.90625 333.222656 81.8125 333.980469 82.714844 334.742188 C 83.621094 335.5 84.527344 336.257812 85.476562 336.957031 C 89.207031 339.976562 93.203125 342.902344 96.972656 345.464844 C 97.355469 345.746094 97.671875 345.976562 98.035156 346.144531 C 99.730469 347.289062 100.871094 348.125 101.570312 348.632812 C 102.265625 349.144531 102.539062 349.441406 102.253906 349.429688 C 101.75 349.449219 99.460938 348.453125 95.601562 346.410156 C 91.742188 344.363281 86.34375 341.09375 79.875 336.363281 C 79.050781 335.757812 78.226562 335.15625 77.402344 334.550781 C 76.578125 333.949219 75.734375 333.234375 74.847656 332.585938 C 74.402344 332.261719 74.007812 331.871094 73.5625 331.546875 C 73.117188 331.222656 72.722656 330.832031 72.214844 330.460938 C 71.308594 329.703125 70.402344 328.941406 69.5 328.183594 C 65.863281 325.035156 62.109375 321.511719 58.230469 317.5 C 56.621094 315.839844 55.0625 314.113281 53.4375 312.339844 C 52.625 311.453125 51.859375 310.503906 51.046875 309.617188 C 50.839844 309.367188 50.632812 309.117188 50.425781 308.871094 C 50.21875 308.621094 50.011719 308.371094 49.804688 308.121094 C 49.390625 307.625 49.039062 307.171875 48.625 306.675781 C 45.433594 302.78125 42.238281 298.496094 39.25 294.066406 C 33.203125 285.164062 27.726562 275.214844 23.347656 265.097656 C 18.96875 254.976562 15.625 244.640625 13.46875 235.078125 C 11.25 225.46875 10.109375 216.648438 9.726562 209.453125 C 9.234375 202.277344 9.496094 196.726562 9.898438 193.511719 C 10.03125 192.539062 10.171875 191.277344 10.296875 189.910156 C 10.46875 188.476562 10.671875 186.871094 10.917969 185.203125 C 11.441406 181.691406 11.992188 177.613281 12.867188 173.089844 C 13.742188 168.570312 14.785156 163.683594 16.140625 158.640625 C 17.496094 153.59375 19.117188 148.449219 20.863281 143.398438 C 24.472656 133.28125 29.042969 123.574219 33.398438 115.757812 C 37.753906 107.945312 41.835938 101.96875 43.980469 98.769531 C 46.128906 95.570312 46.691406 95.199219 46.15625 96.464844 C 45.863281 97.128906 45.40625 98.15625 44.667969 99.5625 C 44.5 99.925781 44.328125 100.289062 44.097656 100.605469 C 43.929688 100.96875 43.714844 101.398438 43.5 101.824219 C 43.070312 102.679688 42.640625 103.53125 42.164062 104.449219 C 40.320312 108.164062 38.25 112.589844 36.476562 116.746094 C 36.015625 117.773438 35.621094 118.847656 35.207031 119.808594 C 35.007812 120.347656 34.792969 120.773438 34.640625 121.246094 C 34.488281 121.71875 34.273438 122.148438 34.125 122.621094 C 33.4375 124.355469 32.84375 125.96875 32.398438 127.105469 C 30.601562 131.824219 28.484375 137.777344 26.851562 143.203125 C 25.28125 148.675781 24.238281 153.5625 23.953125 156.078125 C 23.882812 156.707031 23.765625 157.402344 23.664062 158.203125 C 23.5625 159.007812 23.417969 159.875 23.332031 160.785156 C 23.203125 161.761719 23.027344 162.800781 22.914062 163.886719 C 22.753906 165.039062 22.546875 166.25 22.46875 167.554688 C 21.824219 172.828125 21.148438 179.738281 21.160156 188.507812 C 21.132812 189.074219 21.171875 189.6875 21.164062 190.363281 C 21.15625 191.039062 21.210938 191.761719 21.222656 192.546875 C 21.238281 194.117188 21.355469 195.957031 21.441406 197.96875 C 21.726562 201.972656 22.128906 206.746094 22.816406 211.925781 C 23.570312 217.152344 24.609375 222.78125 25.949219 228.535156 C 27.355469 234.335938 29.105469 240.191406 31.105469 245.84375 C 33.167969 251.542969 35.480469 257.03125 37.835938 262.066406 C 40.253906 267.144531 42.757812 271.707031 45.050781 275.625 C 46.253906 277.574219 47.328125 279.433594 48.371094 281.070312 C 49.410156 282.710938 50.371094 284.191406 51.234375 285.40625 C 52.914062 287.902344 54.144531 289.679688 54.65625 290.445312 C 55.167969 291.207031 55.679688 291.972656 56.191406 292.738281 C 56.707031 293.5 57.28125 294.3125 57.792969 295.074219 C 58.082031 295.480469 58.367188 295.886719 58.65625 296.292969 C 58.941406 296.695312 59.230469 297.101562 59.519531 297.507812 C 60.09375 298.320312 60.78125 299.113281 61.417969 299.96875 C 64.128906 303.316406 67.503906 306.957031 72.082031 311.082031 C 74.367188 313.148438 78.019531 316.40625 82.527344 320.09375 C 86.972656 323.734375 92.300781 327.632812 97.6875 331.183594 C 103.074219 334.738281 108.5 337.832031 113.039062 340.277344 C 114.148438 340.894531 115.238281 341.402344 116.21875 341.921875 C 117.199219 342.445312 118.164062 342.859375 119.015625 343.289062 C 120.707031 344.039062 121.988281 344.683594 122.84375 345.117188 C 123.632812 345.5 124.46875 345.820312 125.195312 346.15625 C 125.558594 346.324219 125.925781 346.492188 126.289062 346.664062 C 126.652344 346.832031 127.015625 347 127.378906 347.167969 C 128.105469 347.503906 128.941406 347.824219 129.730469 348.210938 C 130.632812 348.578125 131.53125 348.941406 132.605469 349.339844 C 133.144531 349.535156 133.742188 349.78125 134.28125 349.980469 C 134.878906 350.222656 135.527344 350.40625 136.191406 350.695312 C 137.5625 351.214844 139.15625 351.699219 140.941406 352.320312 C 144.601562 353.441406 149.082031 354.773438 155.113281 355.976562 C 155.761719 356.15625 156.453125 356.273438 157.148438 356.390625 C 156.21875 356.199219 155.226562 355.957031 154.230469 355.71875 C 153.996094 355.644531 153.820312 355.613281 153.585938 355.539062 C 153.238281 355.480469 152.9375 355.355469 152.59375 355.296875 C 148.492188 354.246094 144.25 352.992188 140.210938 351.59375 C 132.253906 348.886719 126.457031 346.300781 122.695312 344.519531 C 120.8125 343.628906 119.359375 342.957031 118.441406 342.480469 C 117.523438 342.003906 117.035156 341.742188 117.035156 341.742188 C 117.035156 341.742188 116.589844 341.417969 115.847656 340.96875 C 115.164062 340.566406 114.214844 339.871094 113.28125 339.285156 C 112.390625 338.636719 111.457031 338.050781 110.761719 337.539062 C 110.0625 337.027344 109.617188 336.703125 109.617188 336.703125 C 109.617188 336.703125 109.066406 336.394531 108.164062 336.027344 C 107.3125 335.597656 106.203125 334.984375 105.050781 334.429688 C 104.75 334.308594 104.496094 334.125 104.195312 334 C 103.894531 333.878906 103.640625 333.691406 103.40625 333.617188 C 102.914062 333.355469 102.425781 333.09375 101.996094 332.878906 C 101.144531 332.449219 100.589844 332.140625 100.589844 332.140625 C 100.589844 332.140625 100.527344 332.09375 100.398438 332.003906 C 100.273438 331.910156 100.082031 331.769531 99.828125 331.585938 C 99.320312 331.214844 98.558594 330.65625 97.625 330.070312 C 97.4375 329.929688 97.183594 329.746094 96.929688 329.558594 C 96.675781 329.375 96.421875 329.1875 96.167969 329.003906 C 95.660156 328.632812 95.089844 328.214844 94.582031 327.84375 C 93.441406 327.007812 92.28125 326.0625 91.125 325.117188 C 88.804688 323.226562 86.425781 321.289062 84.644531 319.597656 C 83.675781 318.789062 82.945312 318.058594 82.402344 317.46875 C 81.816406 316.941406 81.355469 316.507812 81.210938 316.304688 C 81.085938 316.210938 80.941406 316.007812 80.605469 315.667969 C 80.335938 315.371094 79.9375 314.984375 79.414062 314.503906 C 78.890625 314.019531 78.347656 313.429688 77.695312 312.855469 C 77.09375 312.21875 76.359375 311.488281 75.628906 310.757812 C 72.621094 307.679688 68.769531 303.496094 65.128906 298.886719 C 61.445312 294.339844 57.929688 289.429688 55.238281 285.125 C 54.566406 284.046875 53.957031 283.015625 53.300781 282.050781 C 52.996094 281.535156 52.707031 281.128906 52.46875 280.660156 C 52.226562 280.191406 51.9375 279.789062 51.699219 279.320312 C 51.230469 278.492188 50.78125 277.773438 50.398438 277.101562 C 50.011719 276.429688 49.753906 275.851562 49.511719 275.382812 C 49.03125 274.445312 48.484375 273.460938 47.984375 272.414062 C 47.484375 271.367188 46.859375 270.226562 46.296875 269.132812 C 46.039062 268.554688 45.78125 267.976562 45.476562 267.460938 C 45.214844 266.882812 44.957031 266.304688 44.652344 265.789062 C 44.136719 264.632812 43.574219 263.539062 43.183594 262.472656 C 42.683594 261.425781 42.296875 260.363281 41.875 259.472656 C 41.503906 258.515625 41.210938 257.71875 40.890625 257.09375 C 40.613281 256.40625 40.355469 255.828125 40.242188 255.449219 C 40.125 255.074219 39.984375 254.871094 39.984375 254.871094 C 39.984375 254.871094 39.765625 253.835938 39.660156 252.785156 C 39.441406 251.75 39.335938 250.699219 39.335938 250.699219 C 39.335938 250.699219 39.0625 250.011719 38.5625 248.960938 C 38.0625 247.914062 37.558594 246.476562 36.945312 245.050781 C 36.667969 244.363281 36.375 243.566406 36.164062 242.921875 C 35.890625 242.234375 35.675781 241.59375 35.480469 241.0625 C 35.289062 240.527344 35.15625 240.042969 34.996094 239.730469 C 34.835938 239.417969 34.800781 239.199219 34.800781 239.199219 C 34.800781 239.199219 34.703125 238.933594 34.632812 238.492188 C 34.503906 238.007812 34.292969 237.363281 34.09375 236.441406 C 33.847656 235.578125 33.566406 234.496094 33.316406 233.242188 C 33.066406 231.988281 32.734375 230.578125 32.386719 229.054688 C 32.265625 228.289062 32.085938 227.472656 31.902344 226.65625 C 31.835938 226.21875 31.71875 225.84375 31.652344 225.402344 C 31.582031 224.964844 31.515625 224.523438 31.449219 224.085938 C 31.3125 223.207031 31.113281 222.28125 31.023438 221.339844 C 30.933594 220.398438 30.78125 219.410156 30.625 218.417969 C 30.078125 214.511719 29.699219 210.242188 29.425781 205.953125 C 29.15625 201.664062 29.152344 197.28125 29.308594 193.207031 C 29.402344 189.085938 29.75 185.152344 30.164062 181.660156 C 30.945312 174.734375 32.128906 169.660156 32.738281 168.15625 C 33.304688 166.722656 33.722656 166.148438 33.804688 166.304688 C 33.882812 166.460938 33.769531 167.546875 33.523438 169.21875 C 33.480469 169.675781 33.375 170.082031 33.351562 170.648438 C 33.261719 171.167969 33.238281 171.734375 33.167969 172.367188 C 33.09375 172.996094 33.023438 173.625 32.90625 174.316406 C 32.851562 175.058594 32.796875 175.796875 32.699219 176.597656 C 32.496094 178.207031 32.4375 180.011719 32.335938 181.886719 C 32.296875 183.804688 32.179688 185.957031 32.300781 188.1875 C 32.382812 192.730469 32.714844 198.132812 33.585938 204.128906 C 34.414062 210.1875 35.824219 216.769531 37.746094 223.726562 C 38.730469 227.175781 39.902344 230.761719 41.1875 234.328125 C 42.472656 237.898438 43.992188 241.542969 45.667969 245.105469 C 47.34375 248.671875 49.148438 252.328125 51.15625 255.839844 C 53.113281 259.417969 55.277344 262.851562 57.613281 266.3125 C 57.851562 266.78125 58.222656 267.34375 58.605469 268.015625 C 60.273438 270.792969 62.9375 275.273438 66.53125 280.339844 C 68.386719 282.863281 70.335938 285.65625 72.617188 288.394531 C 72.886719 288.691406 73.175781 289.09375 73.460938 289.5 C 73.75 289.90625 74.019531 290.199219 74.355469 290.542969 C 74.914062 291.242188 75.535156 291.992188 76.140625 292.628906 C 77.367188 294.011719 78.546875 295.460938 79.882812 296.828125 C 81.171875 298.257812 82.507812 299.628906 83.78125 300.949219 C 85.164062 302.253906 86.5 303.621094 87.882812 304.925781 C 88.21875 305.265625 88.597656 305.542969 88.933594 305.886719 L 89.980469 306.847656 C 90.695312 307.46875 91.410156 308.089844 92.078125 308.773438 C 92.792969 309.394531 93.445312 309.96875 94.160156 310.585938 C 94.539062 310.867188 94.875 311.207031 95.191406 311.441406 C 95.570312 311.71875 95.84375 312.015625 96.222656 312.292969 C 101.761719 316.832031 107.136719 320.667969 111.332031 323.449219 C 115.785156 326.414062 120.421875 329.125 124.960938 331.570312 C 129.503906 334.019531 133.863281 336.042969 137.894531 337.722656 C 145.839844 341.105469 151.929688 343.027344 153.398438 343.8125 C 153.398438 343.8125 153.117188 343.800781 152.644531 343.648438 C 152.125 343.5625 151.476562 343.378906 150.609375 343.234375 C 150.203125 343.128906 149.746094 343.085938 149.273438 342.933594 C 148.75 342.847656 148.277344 342.695312 147.757812 342.605469 C 146.703125 342.320312 145.488281 342.113281 144.371094 341.78125 C 142.902344 341.390625 141.390625 341.0625 139.96875 340.605469 C 137.039062 339.824219 133.234375 338.5 130.203125 337.453125 C 128.703125 336.839844 127.394531 336.371094 126.445312 336.066406 C 125.546875 335.699219 124.898438 335.519531 124.851562 335.582031 C 124.851562 335.582031 125.214844 335.75 125.816406 335.996094 C 126.371094 336.304688 127.144531 336.578125 127.933594 336.960938 C 128.660156 337.296875 129.496094 337.617188 130.050781 337.925781 C 130.652344 338.171875 131.015625 338.339844 131.015625 338.339844 C 131.015625 338.339844 131.679688 338.628906 132.644531 339.042969 C 133.605469 339.457031 134.917969 339.929688 136.179688 340.464844 C 137.445312 341 138.800781 341.40625 139.8125 341.757812 C 140.285156 341.910156 140.710938 342.125 140.996094 342.136719 C 141.292969 342.257812 141.46875 342.289062 141.46875 342.289062 C 141.46875 342.289062 142.386719 342.765625 143.238281 343.195312 C 143.664062 343.410156 144.15625 343.671875 144.472656 343.902344 C 144.601562 343.996094 144.773438 344.023438 144.898438 344.117188 C 144.964844 344.164062 145.027344 344.210938 145.027344 344.210938 C 145.027344 344.210938 145.671875 344.390625 146.511719 344.710938 C 146.984375 344.863281 147.457031 345.015625 148.039062 345.148438 C 148.578125 345.347656 149.160156 345.480469 149.808594 345.664062 C 151.035156 345.980469 152.21875 346.359375 153.101562 346.613281 C 153.988281 346.871094 154.570312 347.007812 154.570312 347.007812 L 152.542969 346.984375 C 152.542969 346.984375 153.0625 347.070312 153.945312 347.328125 C 154.355469 347.433594 154.9375 347.566406 155.628906 347.683594 C 156.324219 347.804688 157.082031 347.96875 157.898438 348.175781 C 161.335938 348.9375 166.203125 349.871094 172.1875 350.746094 C 172.925781 350.800781 173.964844 350.976562 175.179688 351.179688 C 175.808594 351.253906 176.5 351.371094 177.242188 351.425781 C 177.980469 351.480469 178.78125 351.578125 179.585938 351.679688 C 180.433594 351.71875 181.347656 351.800781 182.324219 351.929688 C 183.28125 351.949219 184.257812 352.082031 185.328125 352.082031 C 186.351562 352.152344 187.484375 352.199219 188.613281 352.25 C 189.179688 352.273438 189.746094 352.300781 190.3125 352.324219 C 190.878906 352.347656 191.492188 352.308594 192.058594 352.335938 C 196.855469 352.4375 202.226562 352.277344 207.832031 351.804688 C 213.441406 351.328125 219.339844 350.585938 225.113281 349.351562 C 230.898438 348.230469 236.679688 346.71875 242.054688 345.097656 C 247.472656 343.417969 252.464844 341.519531 256.953125 339.644531 C 261.378906 337.71875 265.191406 335.835938 268.269531 334.292969 C 269.769531 333.441406 271.128906 332.78125 272.207031 332.105469 C 273.285156 331.433594 274.222656 330.953125 274.890625 330.566406 C 274.890625 330.566406 275.046875 330.484375 275.316406 330.390625 C 275.582031 330.292969 275.894531 330.128906 276.363281 329.890625 C 276.785156 329.710938 277.316406 329.515625 277.832031 329.210938 C 278.097656 329.113281 278.410156 328.953125 278.675781 328.855469 C 278.988281 328.695312 279.253906 328.597656 279.566406 328.4375 C 280.722656 327.921875 281.929688 327.339844 282.710938 326.9375 C 283.601562 326.519531 284.117188 326.214844 284.117188 326.214844 C 284.117188 326.214844 284.410156 325.945312 284.800781 325.546875 C 285.046875 325.339844 285.296875 325.132812 285.546875 324.925781 C 285.839844 324.652344 286.089844 324.445312 286.386719 324.175781 C 286.976562 323.632812 287.523438 323.15625 287.910156 322.757812 C 288.160156 322.550781 288.296875 322.359375 288.453125 322.28125 C 288.546875 322.152344 288.65625 322.136719 288.65625 322.136719 C 288.65625 322.136719 289.109375 321.785156 289.808594 321.226562 C 290.558594 320.605469 291.617188 319.824219 292.863281 318.785156 C 295.417969 316.761719 298.683594 313.894531 301.917969 310.804688 C 303.535156 309.261719 305.148438 307.71875 306.609375 306.253906 C 308.117188 304.726562 309.46875 303.28125 310.679688 302.027344 C 311.253906 301.375 311.84375 300.832031 312.371094 300.246094 C 312.851562 299.722656 313.332031 299.195312 313.722656 298.800781 C 314.5 298.003906 315.027344 297.417969 315.230469 297.273438 C 316.769531 295.964844 315.753906 297.753906 315.753906 297.753906 C 315.753906 297.753906 316.355469 296.929688 317.394531 295.644531 C 317.625 295.328125 317.90625 294.945312 318.183594 294.566406 C 318.460938 294.183594 318.742188 293.804688 319.066406 293.359375 C 319.714844 292.472656 320.363281 291.585938 321.109375 290.570312 C 321.804688 289.617188 322.546875 288.605469 323.226562 287.542969 C 323.90625 286.480469 324.648438 285.46875 325.28125 284.46875 C 325.914062 283.472656 326.5 282.539062 327.085938 281.601562 C 327.226562 281.414062 327.363281 281.222656 327.484375 280.921875 C 327.625 280.730469 327.703125 280.496094 327.839844 280.304688 C 328.117188 279.925781 328.289062 279.5625 328.519531 279.242188 C 328.921875 278.5625 329.429688 277.867188 329.925781 277.058594 C 330.417969 276.25 331.003906 275.316406 331.589844 274.382812 C 332.175781 273.449219 332.761719 272.515625 333.394531 271.515625 C 333.980469 270.582031 334.613281 269.585938 335.089844 268.667969 C 336.21875 266.863281 337.125 265.089844 337.832031 263.855469 C 338.1875 263.238281 338.449219 262.75 338.617188 262.386719 C 338.785156 262.023438 338.925781 261.832031 338.925781 261.832031 L 338.070312 261.402344 C 338.070312 261.402344 338.195312 261.101562 338.546875 260.484375 C 338.671875 260.183594 338.839844 259.820312 339.054688 259.394531 C 339.269531 258.964844 339.46875 258.429688 339.710938 257.828125 C 339.957031 257.230469 340.246094 256.566406 340.539062 255.902344 C 340.828125 255.238281 341.148438 254.402344 341.46875 253.566406 C 341.789062 252.726562 342.15625 251.828125 342.523438 250.925781 C 342.890625 250.027344 343.238281 249.015625 343.636719 247.945312 C 345.125 243.777344 346.78125 238.851562 348.179688 233.351562 C 349.578125 227.847656 350.890625 221.796875 351.726562 215.59375 C 353.5625 203.105469 353.6875 189.761719 352.546875 178.410156 C 352.011719 172.757812 351.210938 167.59375 350.375 163.28125 C 350.160156 162.246094 349.941406 161.210938 349.726562 160.175781 C 349.460938 159.207031 349.261719 158.28125 349.082031 157.464844 C 348.898438 156.648438 348.652344 155.789062 348.488281 155.082031 C 348.257812 154.332031 348.15625 153.671875 347.945312 153.03125 C 347.945312 153.03125 347.925781 152.921875 347.910156 152.808594 C 347.828125 152.652344 347.796875 152.433594 347.746094 152.105469 C 347.597656 151.507812 347.414062 150.695312 347.152344 149.722656 C 346.625 147.78125 345.949219 145.242188 345.183594 142.828125 C 343.648438 138.007812 342.042969 133.8125 342.460938 135.773438 C 342.460938 135.773438 342.460938 135.773438 341.800781 134.414062 C 341.523438 133.722656 341.023438 132.675781 340.328125 131.097656 C 339.589844 129.582031 338.699219 127.46875 337.378906 124.75 C 336.058594 122.03125 334.128906 118.28125 331.671875 114.050781 C 329.171875 109.882812 326.210938 105.28125 323.0625 100.929688 C 319.914062 96.582031 316.519531 92.441406 313.460938 89.035156 C 313.109375 88.582031 312.710938 88.195312 312.3125 87.808594 C 311.917969 87.417969 311.566406 86.96875 311.230469 86.625 C 310.832031 86.238281 310.546875 85.832031 310.210938 85.488281 C 309.878906 85.148438 309.542969 84.804688 309.210938 84.464844 C 308.542969 83.78125 308 83.1875 307.457031 82.597656 C 306.917969 82.007812 306.394531 81.527344 305.933594 81.089844 C 305.933594 81.089844 306.125 81.625 305.828125 81.5 C 305.652344 81.472656 305.398438 81.285156 304.890625 80.914062 C 304.429688 80.480469 303.652344 79.8125 302.585938 78.742188 C 301.523438 77.667969 300.265625 76.457031 299.011719 75.246094 C 298.40625 74.609375 297.691406 73.988281 297.039062 73.414062 C 296.386719 72.839844 295.785156 72.203125 295.148438 71.738281 C 293.910156 70.636719 292.816406 69.738281 292.035156 69.074219 C 291.257812 68.40625 290.75 68.035156 290.75 68.035156 C 290.75 68.035156 291.210938 68.46875 291.609375 68.855469 C 291.863281 69.042969 292.070312 69.292969 292.261719 69.429688 C 292.453125 69.570312 292.53125 69.726562 292.53125 69.726562 C 292.53125 69.726562 293.515625 70.644531 294.519531 71.667969 C 294.726562 71.917969 295.042969 72.148438 295.25 72.398438 C 295.457031 72.648438 295.710938 72.832031 295.855469 73.035156 C 296.253906 73.425781 296.460938 73.671875 296.460938 73.671875 C 296.460938 73.671875 296.714844 73.859375 297.046875 74.199219 C 297.445312 74.589844 297.96875 75.070312 298.636719 75.753906 C 299.308594 76.4375 300.101562 77.214844 300.976562 78.148438 C 301.851562 79.078125 302.855469 80.105469 303.9375 81.289062 C 304.480469 81.878906 305.019531 82.46875 305.5625 83.058594 C 305.832031 83.355469 306.101562 83.652344 306.4375 83.992188 C 306.707031 84.289062 306.933594 84.648438 307.265625 84.988281 C 307.824219 85.691406 308.367188 86.28125 308.925781 86.980469 C 309.484375 87.683594 310.042969 88.382812 310.601562 89.085938 C 311.160156 89.785156 311.714844 90.484375 312.273438 91.1875 C 312.832031 91.886719 313.390625 92.589844 313.902344 93.351562 C 314.972656 94.816406 316.042969 96.28125 316.988281 97.65625 C 317.195312 97.902344 317.355469 98.214844 317.5 98.417969 C 317.722656 98.777344 317.929688 99.027344 318.09375 99.339844 C 318.253906 99.652344 318.398438 99.855469 318.539062 100.058594 C 318.78125 100.527344 319.007812 100.886719 319.167969 101.199219 C 319.488281 101.824219 319.523438 102.042969 319.351562 102.011719 C 319.175781 101.984375 318.777344 101.59375 318.109375 100.910156 C 317.777344 100.570312 317.378906 100.179688 317.027344 99.730469 C 316.613281 99.230469 316.089844 98.75 315.546875 98.160156 C 313.382812 95.796875 310.308594 92.277344 306.1875 88.191406 C 305.1875 87.167969 304.121094 86.09375 302.882812 84.992188 C 302.292969 84.464844 301.753906 83.875 301.101562 83.300781 C 300.449219 82.726562 299.863281 82.199219 299.257812 81.5625 C 298.984375 81.265625 298.605469 80.988281 298.273438 80.648438 C 297.890625 80.367188 297.621094 80.074219 297.238281 79.792969 C 296.589844 79.21875 295.875 78.601562 295.160156 77.980469 C 293.730469 76.738281 292.300781 75.5 290.652344 74.292969 C 288.082031 72.214844 285.226562 70.125 282.308594 67.992188 C 281.550781 67.433594 280.804688 66.988281 280.042969 66.429688 C 279.28125 65.875 278.476562 65.378906 277.667969 64.886719 C 277.289062 64.609375 276.859375 64.394531 276.480469 64.113281 C 276.097656 63.835938 275.671875 63.621094 275.292969 63.34375 C 274.484375 62.847656 273.675781 62.355469 272.804688 61.816406 C 269.464844 59.859375 266.015625 57.917969 262.476562 56.105469 C 258.933594 54.292969 255.25 52.667969 251.632812 51.09375 C 244.304688 48.066406 236.949219 45.605469 230.15625 43.847656 C 229.335938 43.636719 228.453125 43.378906 227.632812 43.167969 C 226.8125 42.960938 225.992188 42.75 225.125 42.601562 C 223.484375 42.179688 221.925781 41.917969 220.351562 41.542969 C 219.59375 41.378906 218.835938 41.214844 218.082031 41.050781 C 217.324219 40.886719 216.632812 40.769531 215.9375 40.648438 C 215.246094 40.53125 214.554688 40.414062 213.859375 40.296875 C 213.167969 40.179688 212.519531 40 211.890625 39.925781 C 211.261719 39.855469 210.613281 39.675781 210.046875 39.652344 C 209.464844 39.515625 208.835938 39.445312 208.316406 39.355469 C 207.167969 39.195312 206.125 39.019531 205.152344 38.890625 C 203.199219 38.628906 201.6875 38.300781 200.472656 38.097656 C 197.621094 37.46875 192.09375 36.640625 185.300781 36.339844 C 181.839844 36.144531 178.128906 36.160156 174.199219 36.203125 C 170.226562 36.3125 166.171875 36.660156 162.074219 37.070312 C 153.898438 38 145.773438 39.652344 139.039062 41.539062 C 132.300781 43.425781 126.933594 45.4375 124.195312 46.648438 C 122.820312 47.199219 121.972656 47.554688 121.597656 47.667969 C 121.222656 47.78125 121.316406 47.65625 121.765625 47.304688 C 121.96875 47.160156 122.328125 46.9375 122.6875 46.710938 C 123.046875 46.488281 123.5625 46.183594 124.078125 45.878906 C 124.59375 45.574219 125.21875 45.253906 125.824219 44.820312 C 126.496094 44.433594 127.121094 44.113281 127.902344 43.710938 C 130.808594 42.136719 134.433594 40.507812 137.8125 39.082031 C 138.660156 38.726562 139.503906 38.371094 140.300781 38.078125 C 141.097656 37.789062 141.898438 37.496094 142.585938 37.21875 C 144.074219 36.652344 145.308594 36.292969 146.265625 35.917969 C 150.179688 34.695312 155.148438 33.363281 159.679688 32.492188 C 164.195312 31.511719 168.257812 30.882812 170.265625 30.402344 C 171.238281 30.140625 172.554688 29.9375 174.09375 29.699219 C 174.863281 29.578125 175.738281 29.441406 176.683594 29.351562 C 177.625 29.265625 178.613281 29.109375 179.726562 29.050781 C 184.046875 28.605469 189.730469 28.289062 196.976562 28.234375 C 197.433594 28.277344 197.9375 28.253906 198.503906 28.28125 C 199.070312 28.304688 199.636719 28.328125 200.3125 28.335938 C 200.988281 28.34375 201.664062 28.351562 202.402344 28.40625 C 203.140625 28.460938 203.929688 28.453125 204.777344 28.488281 C 206.414062 28.515625 208.238281 28.683594 210.171875 28.835938 C 212.109375 28.984375 214.171875 29.226562 216.339844 29.453125 C 220.703125 30.015625 225.425781 30.746094 230.25 31.742188 C 235.070312 32.738281 240.050781 34.046875 244.894531 35.546875 C 254.582031 38.546875 263.730469 42.414062 270.59375 46.074219 C 274.074219 47.84375 276.921875 49.539062 279.199219 50.816406 C 280.308594 51.433594 281.195312 52.082031 281.941406 52.527344 C 282.683594 52.976562 283.191406 53.347656 283.507812 53.578125 C 284.140625 54.042969 284.777344 54.507812 285.410156 54.972656 C 286.046875 55.4375 286.679688 55.898438 287.378906 56.410156 C 288.664062 57.449219 290.039062 58.359375 291.515625 59.539062 C 292.277344 60.09375 293.039062 60.652344 293.800781 61.207031 C 294.625 61.8125 295.402344 62.476562 296.226562 63.082031 C 297.113281 63.730469 297.957031 64.445312 298.90625 65.140625 C 299.414062 65.511719 299.859375 65.835938 300.367188 66.207031 C 300.871094 66.578125 301.378906 66.949219 301.839844 67.386719 C 302.347656 67.757812 302.984375 68.222656 303.632812 68.792969 C 304.285156 69.367188 304.9375 69.941406 305.761719 70.546875 C 306.140625 70.824219 306.539062 71.210938 306.9375 71.601562 C 307.335938 71.988281 307.777344 72.3125 308.175781 72.703125 C 308.574219 73.089844 308.96875 73.480469 309.476562 73.851562 C 309.875 74.238281 310.335938 74.671875 310.796875 75.109375 C 314.359375 78.492188 318.257812 82.613281 321.78125 86.847656 C 325.304688 91.082031 328.5625 95.414062 331.089844 99.015625 C 331.4375 99.464844 331.679688 99.933594 331.96875 100.339844 C 332.253906 100.746094 332.496094 101.214844 332.785156 101.621094 C 333.359375 102.429688 333.808594 103.148438 334.257812 103.867188 C 335.089844 105.253906 335.808594 106.269531 336.195312 106.9375 C 336.644531 107.65625 337.027344 108.328125 337.414062 109 C 337.558594 109.203125 337.65625 109.46875 337.863281 109.71875 C 338.085938 110.078125 338.328125 110.546875 338.507812 110.96875 C 338.8125 111.484375 339.070312 112.0625 339.390625 112.6875 C 339.792969 113.46875 340.210938 114.359375 340.757812 115.34375 C 340.917969 115.65625 341.144531 116.015625 341.257812 116.390625 C 341.417969 116.703125 341.578125 117.015625 341.757812 117.4375 C 341.917969 117.75 342.097656 118.171875 342.257812 118.484375 C 342.433594 118.90625 342.660156 119.265625 342.898438 119.734375 C 343.160156 120.3125 343.417969 120.890625 343.738281 121.515625 C 343.464844 120.828125 343.203125 120.25 342.992188 119.605469 C 342.929688 119.5625 342.914062 119.449219 342.914062 119.449219 C 342.636719 118.761719 342.34375 117.964844 341.925781 117.074219 C 341.765625 116.761719 341.605469 116.449219 341.441406 116.136719 C 341.203125 115.667969 340.960938 115.199219 340.703125 114.621094 C 340.21875 113.683594 339.675781 112.699219 338.984375 111.511719 C 338.886719 111.246094 338.679688 110.996094 338.519531 110.683594 C 335.839844 106.09375 331.640625 99.320312 326.242188 92.058594 C 320.84375 84.796875 314.136719 77.066406 307.015625 70.296875 C 299.941406 63.460938 294.023438 59.035156 290.140625 56.09375 C 289.125 55.351562 288.300781 54.75 287.539062 54.191406 C 286.777344 53.636719 286.160156 53.28125 285.652344 52.910156 C 285.148438 52.539062 284.765625 52.261719 284.464844 52.136719 C 284.210938 51.953125 284.085938 51.859375 284.085938 51.859375 C 284.085938 51.859375 283.578125 51.488281 282.800781 50.820312 C 282.039062 50.265625 281.007812 49.410156 280.039062 48.605469 C 279.023438 47.863281 277.992188 47.011719 277.230469 46.453125 C 276.46875 45.898438 275.898438 45.480469 275.898438 45.480469 C 275.898438 45.480469 275.234375 45.1875 274.253906 44.664062 C 273.226562 44.207031 271.902344 43.625 270.511719 42.996094 C 269.183594 42.414062 267.746094 41.851562 266.71875 41.390625 C 266.183594 41.191406 265.753906 40.976562 265.457031 40.855469 C 265.15625 40.734375 264.980469 40.703125 264.980469 40.703125 C 264.980469 40.703125 264.617188 40.535156 263.9375 40.132812 C 263.273438 39.84375 262.292969 39.320312 261.140625 38.769531 C 259.984375 38.214844 258.59375 37.585938 257.140625 36.914062 C 256.414062 36.574219 255.578125 36.253906 254.851562 35.917969 C 254.058594 35.535156 253.222656 35.214844 252.449219 34.941406 C 250.820312 34.234375 249.148438 33.59375 247.539062 33 C 245.925781 32.40625 244.378906 31.859375 243.070312 31.386719 C 241.695312 30.871094 240.511719 30.492188 239.566406 30.1875 C 238.621094 29.882812 237.972656 29.703125 237.71875 29.515625 C 237.417969 29.394531 236.472656 29.089844 234.878906 28.605469 C 233.351562 28.167969 231.238281 27.597656 228.777344 26.964844 C 223.8125 25.765625 217.195312 24.429688 210.253906 23.535156 C 203.308594 22.644531 196.105469 22.242188 190.023438 22.171875 C 183.9375 22.101562 178.972656 22.363281 176.414062 22.535156 C 175.800781 22.574219 175.125 22.566406 174.464844 22.667969 C 173.789062 22.660156 173.132812 22.761719 172.410156 22.816406 C 171.6875 22.871094 170.964844 22.929688 170.242188 22.984375 C 169.519531 23.039062 168.75 23.160156 168.027344 23.214844 C 167.257812 23.332031 166.535156 23.390625 165.765625 23.507812 C 165 23.628906 164.230469 23.746094 163.507812 23.800781 C 162.015625 23.976562 160.542969 24.261719 159.175781 24.527344 C 157.75 24.75 156.496094 25 155.304688 25.296875 C 154.160156 25.53125 153.125 25.746094 152.199219 25.945312 C 151.273438 26.144531 150.570312 26.3125 150.128906 26.378906 C 149.644531 26.511719 149.425781 26.546875 149.425781 26.546875 C 149.425781 26.546875 148.136719 26.578125 146.910156 26.652344 C 146.296875 26.691406 145.621094 26.683594 145.183594 26.753906 C 144.679688 26.773438 144.351562 26.824219 144.351562 26.824219 C 144.351562 26.824219 143.441406 27.132812 142.113281 27.621094 C 141.46875 27.832031 140.671875 28.125 139.828125 28.480469 C 139.027344 28.773438 138.121094 29.082031 137.277344 29.4375 C 135.523438 30.105469 133.722656 30.832031 132.457031 31.367188 C 131.191406 31.898438 130.300781 32.320312 130.300781 32.320312 C 130.300781 32.320312 129.125 32.726562 127.058594 33.550781 C 125.996094 33.941406 124.839844 34.457031 123.351562 35.023438 C 122.664062 35.300781 121.867188 35.59375 121.085938 35.996094 C 120.238281 36.351562 119.457031 36.753906 118.550781 37.0625 C 115.078125 38.613281 111 40.59375 106.796875 42.875 C 102.488281 45.171875 98.007812 47.835938 93.625 50.761719 C 89.179688 53.644531 84.894531 56.839844 80.875 59.933594 C 76.871094 63.140625 73.136719 66.25 69.933594 69.164062 C 66.726562 72.078125 63.992188 74.75 61.894531 76.820312 C 59.796875 78.886719 58.226562 80.367188 57.480469 80.988281 C 56.667969 81.566406 56.0625 81.996094 55.703125 82.222656 C 55.34375 82.445312 55.1875 82.527344 55.214844 82.351562 C 55.246094 82.179688 55.433594 81.925781 55.804688 81.417969 C 56.175781 80.910156 56.75 80.257812 57.507812 79.355469 C 60.40625 75.925781 65.960938 69.667969 74.210938 61.585938 C 78.363281 57.511719 83.496094 52.894531 89.644531 47.949219 C 92.699219 45.507812 96.015625 42.96875 99.617188 40.445312 C 103.21875 37.917969 106.992188 35.421875 111.113281 32.984375 C 119.246094 28.125 128.417969 23.445312 138.339844 19.601562 C 148.304688 15.695312 159.050781 12.457031 170.234375 10.222656 C 171 10.101562 171.878906 9.964844 172.933594 9.859375 C 174.03125 9.6875 175.367188 9.59375 176.746094 9.4375 C 178.191406 9.324219 179.746094 9.199219 181.519531 9.035156 C 184.976562 8.835938 188.933594 8.617188 193.320312 8.613281 C 202.027344 8.558594 212.269531 9.335938 222.664062 11.097656 C 233.058594 12.863281 243.5625 15.679688 252.96875 19.058594 C 262.5 22.136719 270.707031 26.097656 276.734375 29.4375 C 283.1875 32.992188 289.382812 37.039062 295.136719 41.152344 C 300.828125 45.21875 305.984375 49.480469 310.308594 53.421875 C 314.628906 57.363281 318.175781 61.03125 320.757812 63.894531 C 322.046875 65.324219 323.148438 66.617188 323.914062 67.566406 C 324.742188 68.5625 325.253906 69.328125 325.558594 69.84375 C 325.558594 69.84375 325.289062 69.546875 324.828125 69.113281 C 324.367188 68.675781 323.699219 67.992188 322.839844 67.171875 C 322.042969 66.394531 320.996094 65.429688 319.945312 64.46875 C 318.835938 63.460938 317.613281 62.46875 316.4375 61.414062 C 314.835938 60.144531 313.277344 58.808594 311.691406 57.648438 C 308.488281 55.109375 304.300781 52.046875 300.785156 49.667969 C 299.914062 49.128906 299.089844 48.523438 298.390625 48.011719 C 297.648438 47.566406 297.011719 47.101562 296.394531 46.746094 C 295.273438 46.023438 294.542969 45.683594 294.5 45.75 C 294.5 45.75 296.273438 47.046875 298.097656 48.285156 C 299.871094 49.582031 301.601562 50.945312 301.601562 50.945312 C 301.601562 50.945312 302.363281 51.503906 303.394531 52.355469 C 303.964844 52.773438 304.550781 53.300781 305.25 53.8125 C 305.902344 54.386719 306.597656 54.894531 307.3125 55.515625 C 308.726562 56.648438 310.046875 57.90625 311.140625 58.804688 C 312.171875 59.65625 312.839844 60.339844 312.839844 60.339844 C 312.839844 60.339844 313.667969 61.335938 314.453125 62.394531 C 314.867188 62.894531 315.28125 63.390625 315.570312 63.796875 C 315.855469 64.203125 316.0625 64.453125 316.0625 64.453125 C 316.0625 64.453125 316.605469 65.042969 317.464844 65.867188 C 317.925781 66.300781 318.402344 66.84375 318.925781 67.328125 C 319.46875 67.917969 320.054688 68.445312 320.597656 69.035156 C 321.140625 69.625 321.679688 70.21875 322.222656 70.808594 C 322.699219 71.351562 323.175781 71.898438 323.636719 72.332031 C 324.097656 72.765625 324.386719 73.171875 324.59375 73.421875 C 324.800781 73.671875 324.945312 73.875 324.945312 73.875 C 324.945312 73.875 324.4375 73.5 323.867188 73.085938 C 323.359375 72.714844 322.789062 72.296875 322.789062 72.296875 C 322.789062 72.296875 322.917969 72.386719 323.125 72.636719 C 323.332031 72.886719 323.664062 73.226562 324.0625 73.617188 C 324.476562 74.113281 325 74.59375 325.558594 75.296875 C 326.164062 75.933594 326.851562 76.726562 327.535156 77.519531 C 330.484375 80.945312 334.582031 85.988281 338.792969 92.480469 C 339.078125 92.882812 339.382812 93.398438 339.6875 93.914062 C 340.058594 94.476562 340.378906 95.101562 340.875 95.753906 C 341.324219 96.472656 341.769531 97.191406 342.300781 98.066406 C 342.765625 98.894531 343.292969 99.765625 343.886719 100.6875 C 346.101562 104.449219 348.703125 109.277344 351.363281 114.824219 C 353.976562 120.4375 356.644531 126.773438 358.875 133.566406 C 359.121094 134.429688 359.476562 135.273438 359.722656 136.136719 C 359.96875 136.996094 360.277344 137.90625 360.523438 138.765625 C 361.078125 140.535156 361.523438 142.324219 362.082031 144.09375 C 363.035156 147.714844 363.941406 151.394531 364.675781 155.050781 C 366.210938 162.402344 367.210938 169.953125 367.75 177.066406 C 368.289062 184.183594 368.335938 191.035156 368.109375 197.199219 C 367.640625 209.417969 366.054688 218.773438 365.40625 222.585938 C 365.40625 222.585938 365.378906 222.757812 365.207031 223.121094 C 365.085938 223.421875 365 223.941406 364.753906 224.542969 C 364.375 225.726562 363.875 227.207031 363.324219 228.753906 C 362.777344 230.300781 362.277344 231.785156 361.835938 232.921875 C 361.390625 234.058594 361.117188 234.832031 361.117188 234.832031 C 361.117188 234.832031 361.074219 235.289062 360.957031 235.984375 C 360.839844 236.675781 360.710938 237.652344 360.582031 238.628906 C 360.449219 239.605469 360.320312 240.578125 360.203125 241.273438 C 360.085938 241.964844 359.996094 242.484375 359.996094 242.484375 C 359.996094 242.484375 359.816406 243.132812 359.484375 244.253906 C 359.152344 245.371094 358.621094 247.027344 357.96875 248.984375 C 356.660156 252.898438 354.757812 258.03125 352.523438 263.210938 C 350.335938 268.332031 347.691406 273.40625 345.535156 277.285156 C 343.378906 281.160156 341.605469 283.851562 341.234375 284.359375 C 340.425781 285.328125 340.191406 285.253906 340.25 284.90625 C 340.277344 284.734375 340.355469 284.496094 340.382812 284.324219 C 340.414062 284.148438 340.507812 284.023438 340.507812 284.023438 C 340.507812 284.023438 340.320312 284.277344 340.058594 284.765625 C 339.796875 285.257812 339.351562 286 338.855469 286.808594 C 338.316406 287.679688 337.683594 288.679688 337.023438 289.847656 C 336.714844 290.402344 336.296875 290.972656 335.941406 291.589844 C 335.523438 292.160156 335.125 292.84375 334.707031 293.414062 C 334.242188 294.046875 333.886719 294.664062 333.425781 295.296875 C 332.960938 295.933594 332.496094 296.566406 332.09375 297.246094 C 331.628906 297.882812 331.167969 298.515625 330.703125 299.148438 C 330.238281 299.785156 329.773438 300.417969 329.355469 300.988281 C 328.890625 301.625 328.476562 302.195312 328.058594 302.765625 C 327.640625 303.335938 327.160156 303.859375 326.785156 304.367188 C 325.980469 305.335938 325.285156 306.285156 324.664062 307 C 322.199219 309.96875 317.726562 314.488281 313.730469 318.085938 C 313.480469 318.292969 313.230469 318.5 312.980469 318.707031 C 312.730469 318.914062 312.484375 319.121094 312.234375 319.328125 C 311.734375 319.742188 311.238281 320.160156 310.847656 320.554688 C 310.398438 320.90625 310.007812 321.304688 309.558594 321.65625 C 309.152344 321.945312 308.8125 322.277344 308.40625 322.566406 C 307.703125 323.125 307.160156 323.601562 306.753906 323.890625 C 306.347656 324.175781 306.101562 324.382812 306.101562 324.382812 L 307.003906 325.144531 C 307.003906 325.144531 306.664062 325.476562 306.007812 325.972656 C 305.714844 326.242188 305.261719 326.59375 304.808594 326.945312 C 304.3125 327.359375 303.8125 327.773438 303.160156 328.269531 C 300.714844 330.277344 297.054688 333.152344 292.488281 336.332031 C 287.917969 339.515625 282.285156 343.085938 276.007812 346.476562 C 275.226562 346.878906 274.398438 347.34375 273.617188 347.746094 C 272.835938 348.148438 272.007812 348.613281 271.117188 349.035156 C 269.445312 349.855469 267.726562 350.738281 265.988281 351.515625 C 262.535156 353.175781 258.828125 354.648438 255.121094 356.121094 C 254.183594 356.605469 253.273438 356.914062 252.320312 357.285156 Z M 349.621094 132.640625 C 349.460938 132.328125 349.285156 131.902344 349.042969 131.433594 C 348.800781 130.964844 348.558594 130.496094 348.300781 129.917969 C 348.125 129.496094 347.945312 129.074219 347.703125 128.605469 C 347.445312 128.027344 347.1875 127.449219 346.867188 126.824219 C 346.867188 126.824219 346.804688 126.777344 346.847656 126.714844 C 347.011719 127.027344 347.171875 127.339844 347.222656 127.667969 C 347.238281 127.777344 347.320312 127.933594 347.382812 127.980469 C 347.445312 128.027344 347.398438 128.089844 347.464844 128.136719 C 347.542969 128.292969 347.640625 128.558594 347.722656 128.714844 C 347.820312 128.980469 347.917969 129.246094 348.015625 129.515625 C 348.109375 129.78125 348.253906 129.984375 348.289062 130.203125 C 348.386719 130.46875 348.46875 130.625 348.5625 130.890625 C 348.582031 131 348.644531 131.046875 348.726562 131.203125 C 348.804688 131.359375 348.824219 131.46875 348.902344 131.625 C 348.984375 131.78125 349 131.890625 349.082031 132.046875 C 349.179688 132.3125 349.339844 132.625 349.390625 132.957031 C 349.550781 133.269531 349.664062 133.644531 349.761719 133.910156 C 350.019531 134.488281 350.167969 135.085938 350.429688 135.664062 C 350.589844 135.976562 350.640625 136.304688 350.753906 136.679688 C 350.851562 136.945312 350.949219 137.214844 351.046875 137.480469 C 351.160156 137.855469 351.339844 138.277344 351.515625 138.699219 C 351.515625 138.699219 351.5 138.589844 351.5 138.589844 C 351.464844 138.371094 351.351562 137.996094 351.285156 137.554688 C 351.214844 137.117188 351.039062 136.695312 350.988281 136.363281 C 350.871094 135.988281 350.757812 135.613281 350.707031 135.28125 C 350.625 135.125 350.609375 135.015625 350.59375 134.90625 C 350.496094 134.640625 350.460938 134.421875 350.460938 134.421875 C 350.460938 134.421875 350.347656 134.046875 349.621094 132.640625 Z M 349.621094 132.640625 " fill-opacity="1" fill-rule="nonzero"/></g></g></g></g></g></g><g clip-path="url(#17df21a800)"><path fill="#4f362a" d="M 204.289062 341.207031 C 222.21875 341.207031 239.660156 338.257812 256.113281 332.117188 C 267.90625 327.695312 276.746094 323.277344 283.378906 318.117188 C 289.273438 313.695312 292.222656 308.292969 292.222656 302.398438 C 292.222656 298.222656 290.503906 293.800781 286.816406 289.378906 L 263.484375 260.148438 C 256.359375 251.0625 247.519531 249.097656 238.429688 254.5 C 227.378906 261.132812 215.339844 264.570312 202.816406 264.570312 C 183.164062 264.570312 167.445312 258.183594 154.425781 245.167969 C 141.410156 232.148438 135.269531 215.9375 135.269531 196.042969 C 135.269531 176.390625 141.652344 160.425781 154.671875 147.164062 C 167.9375 133.652344 184.148438 127.019531 203.796875 127.019531 C 216.816406 127.019531 228.359375 130.214844 238.429688 136.847656 C 241.625 138.8125 244.816406 139.792969 248.253906 139.792969 C 252.183594 139.792969 258.324219 138.320312 263.730469 131.195312 L 286.574219 101.96875 C 290.257812 97.300781 291.976562 93.125 291.976562 89.195312 C 291.976562 78.632812 280.921875 71.511719 272.570312 67.089844 C 251.941406 56.28125 229.097656 50.632812 204.289062 50.632812 C 163.761719 50.632812 129.128906 64.878906 101.125 93.125 C 73.125 121.125 58.878906 155.757812 58.878906 195.550781 C 58.878906 235.585938 73.125 270.222656 101.371094 298.714844 C 129.617188 326.714844 164.003906 341.207031 204.289062 341.207031 Z M 204.289062 341.207031 " fill-opacity="1" fill-rule="nonzero"/></g><path fill="#4f362a" d="M 272.328125 114.003906 C 262.253906 121.863281 265.203125 139.300781 269.378906 148.882812 C 274.292969 159.199219 283.871094 170.003906 275.027344 182.042969 C 267.414062 191.621094 255.378906 186.460938 253.414062 175.164062 C 251.941406 164.847656 257.34375 155.023438 258.082031 144.953125 C 258.816406 137.335938 259.554688 129.96875 257.835938 122.601562 C 256.113281 114.984375 251.449219 108.109375 250.21875 100.738281 C 248.746094 91.652344 256.605469 87.476562 264.222656 92.878906 C 268.152344 95.335938 275.765625 109.089844 271.835938 113.019531 " fill-opacity="1" fill-rule="nonzero"/><path fill="#cf8673" d="M 257.589844 166.320312 C 257.589844 166.320312 254.148438 184.742188 269.378906 182.53125 C 269.378906 182.285156 251.941406 188.671875 257.589844 166.320312 Z M 257.589844 166.320312 " fill-opacity="1" fill-rule="nonzero"/><path fill="#4f362a" d="M 151.234375 306.328125 C 141.164062 314.1875 144.109375 331.382812 148.285156 341.207031 C 153.199219 351.523438 162.777344 362.332031 153.933594 374.367188 C 146.320312 383.945312 134.285156 378.785156 132.320312 367.488281 C 130.847656 357.171875 136.25 347.347656 136.988281 337.277344 C 137.722656 329.660156 138.460938 322.292969 136.742188 314.925781 C 135.023438 307.308594 130.355469 300.433594 129.128906 293.0625 C 127.652344 283.976562 135.511719 279.800781 143.128906 285.203125 C 147.058594 287.660156 154.671875 301.414062 150.742188 305.34375 " fill-opacity="1" fill-rule="nonzero"/><path fill="#cf8673" d="M 136.496094 358.398438 C 136.496094 358.398438 133.058594 376.820312 148.285156 374.613281 C 148.285156 374.613281 130.601562 380.753906 136.496094 358.398438 Z M 136.496094 358.398438 " fill-opacity="1" fill-rule="nonzero"/><path fill="#cf8673" d="M 133.546875 256.464844 L 140.425781 255.972656 L 142.636719 265.554688 L 140.425781 266.289062 Z M 133.546875 256.464844 " fill-opacity="1" fill-rule="nonzero"/><path fill="#cf8673" d="M 77.546875 189.410156 L 81.96875 194.8125 L 75.582031 202.183594 L 73.617188 200.953125 Z M 77.546875 189.410156 " fill-opacity="1" fill-rule="nonzero"/><path fill="#cf8673" d="M 113.40625 235.832031 L 118.320312 230.921875 L 126.179688 236.816406 L 124.953125 238.78125 Z M 113.40625 235.832031 " fill-opacity="1" fill-rule="nonzero"/><path fill="#cf8673" d="M 229.832031 116.707031 L 232.78125 110.566406 L 242.113281 113.511719 L 241.625 115.722656 Z M 229.832031 116.707031 " fill-opacity="1" fill-rule="nonzero"/><path fill="#cf8673" d="M 131.828125 83.054688 L 137.96875 79.617188 L 144.109375 87.230469 L 142.390625 88.703125 Z M 131.828125 83.054688 " fill-opacity="1" fill-rule="nonzero"/><path fill="#cf8673" d="M 255.378906 84.035156 L 259.0625 89.933594 L 251.941406 96.5625 L 250.21875 94.84375 Z M 255.378906 84.035156 " fill-opacity="1" fill-rule="nonzero"/><path fill="#cf8673" d="M 235.972656 68.316406 L 229.097656 67.824219 L 228.113281 58 L 230.324219 57.753906 Z M 235.972656 68.316406 " fill-opacity="1" fill-rule="nonzero"/><path fill="#cf8673" d="M 120.53125 139.300781 L 124.214844 145.199219 L 116.847656 151.582031 L 115.125 150.109375 Z M 120.53125 139.300781 " fill-opacity="1" fill-rule="nonzero"/><path fill="#cf8673" d="M 138.460938 311.238281 L 140.179688 304.609375 L 150.003906 305.589844 L 149.757812 307.800781 Z M 138.460938 311.238281 " fill-opacity="1" fill-rule="nonzero"/><path fill="#cf8673" d="M 220.746094 313.695312 L 222.957031 307.308594 L 232.535156 309.03125 L 232.289062 311.238281 Z M 220.746094 313.695312 " fill-opacity="1" fill-rule="nonzero"/><path fill="#cf8673" d="M 239.902344 270.222656 L 239.902344 263.34375 L 249.730469 262.113281 L 250.21875 264.324219 Z M 239.902344 270.222656 " fill-opacity="1" fill-rule="nonzero"/><path fill="#cf8673" d="M 170.144531 113.757812 L 170.636719 120.636719 L 161.058594 122.847656 L 160.320312 120.636719 Z M 170.144531 113.757812 " fill-opacity="1" fill-rule="nonzero"/><path fill="#cf8673" d="M 136.742188 76.667969 C 136.742188 76.667969 161.550781 47.191406 210.429688 58.492188 C 210.183594 58.492188 163.515625 56.773438 136.742188 76.667969 Z M 136.742188 76.667969 " fill-opacity="1" fill-rule="nonzero"/></svg>