<svg xmlns="http://www.w3.org/2000/svg" xmlns:xlink="http://www.w3.org/1999/xlink" width="500" zoomAndPan="magnify" viewBox="0 0 375 374.999991" height="500" preserveAspectRatio="xMidYMid meet" version="1.0"><defs><clipPath id="3571337008"><path d="M 13 12 L 347.222656 12 L 347.222656 347 L 13 347 Z M 13 12 " clip-rule="nonzero"/></clipPath><clipPath id="95e882e8c1"><path d="M 152.390625 -17.019531 L 377.542969 147.75 L 205.6875 382.582031 L -19.464844 217.816406 Z M 152.390625 -17.019531 " clip-rule="nonzero"/></clipPath><clipPath id="b99b911602"><path d="M 33 36 L 320 36 L 320 324 L 33 324 Z M 33 36 " clip-rule="nonzero"/></clipPath><clipPath id="31243b1f3c"><path d="M 152.390625 -17.019531 L 377.542969 147.75 L 205.6875 382.582031 L -19.464844 217.816406 Z M 152.390625 -17.019531 " clip-rule="nonzero"/></clipPath><clipPath id="1a99a29800"><path d="M 377.589844 147.785156 L 152.4375 -16.984375 L -19.414062 217.851562 L 205.734375 382.617188 Z M 377.589844 147.785156 " clip-rule="nonzero"/></clipPath><clipPath id="ecf9b7c6b1"><rect x="0" width="375" y="0" height="375"/></clipPath><clipPath id="100ffa75ca"><path d="M 330 76 L 365 76 L 365 122 L 330 122 Z M 330 76 " clip-rule="nonzero"/></clipPath><clipPath id="608d286c82"><path d="M 275.289062 56.96875 L 374.804688 85.402344 L 345.339844 188.527344 L 245.824219 160.089844 Z M 275.289062 56.96875 " clip-rule="nonzero"/></clipPath><clipPath id="225bb727a4"><path d="M 275.289062 56.96875 L 374.804688 85.402344 L 345.339844 188.527344 L 245.824219 160.089844 Z M 275.289062 56.96875 " clip-rule="nonzero"/></clipPath><clipPath id="ece529a543"><path d="M 252 100 L 339 100 L 339 158 L 252 158 Z M 252 100 " clip-rule="nonzero"/></clipPath><clipPath id="8032627bda"><path d="M 275.289062 56.96875 L 374.804688 85.402344 L 345.339844 188.527344 L 245.824219 160.089844 Z M 275.289062 56.96875 " clip-rule="nonzero"/></clipPath><clipPath id="56b7846537"><path d="M 275.289062 56.96875 L 374.804688 85.402344 L 345.339844 188.527344 L 245.824219 160.089844 Z M 275.289062 56.96875 " clip-rule="nonzero"/></clipPath><clipPath id="e3f052558f"><path d="M 246 141 L 274 141 L 274 162 L 246 162 Z M 246 141 " clip-rule="nonzero"/></clipPath><clipPath id="ade8673f80"><path d="M 275.289062 56.96875 L 374.804688 85.402344 L 345.339844 188.527344 L 245.824219 160.089844 Z M 275.289062 56.96875 " clip-rule="nonzero"/></clipPath><clipPath id="e9587b0ad7"><path d="M 275.289062 56.96875 L 374.804688 85.402344 L 345.339844 188.527344 L 245.824219 160.089844 Z M 275.289062 56.96875 " clip-rule="nonzero"/></clipPath><clipPath id="da82865872"><path d="M 326 115 L 339 115 L 339 127 L 326 127 Z M 326 115 " clip-rule="nonzero"/></clipPath><clipPath id="a67c7ecd4b"><path d="M 275.289062 56.96875 L 374.804688 85.402344 L 345.339844 188.527344 L 245.824219 160.089844 Z M 275.289062 56.96875 " clip-rule="nonzero"/></clipPath><clipPath id="d9cf1154c5"><path d="M 275.289062 56.96875 L 374.804688 85.402344 L 345.339844 188.527344 L 245.824219 160.089844 Z M 275.289062 56.96875 " clip-rule="nonzero"/></clipPath><clipPath id="11277460b1"><path d="M 299 107 L 336 107 L 336 139 L 299 139 Z M 299 107 " clip-rule="nonzero"/></clipPath><clipPath id="e3e5081115"><path d="M 275.289062 56.96875 L 374.804688 85.402344 L 345.339844 188.527344 L 245.824219 160.089844 Z M 275.289062 56.96875 " clip-rule="nonzero"/></clipPath><clipPath id="389544f29c"><path d="M 275.289062 56.96875 L 374.804688 85.402344 L 345.339844 188.527344 L 245.824219 160.089844 Z M 275.289062 56.96875 " clip-rule="nonzero"/></clipPath><clipPath id="a4e41a0c69"><path d="M 318 104 L 332 104 L 332 113 L 318 113 Z M 318 104 " clip-rule="nonzero"/></clipPath><clipPath id="b9a085ae6c"><path d="M 275.289062 56.96875 L 374.804688 85.402344 L 345.339844 188.527344 L 245.824219 160.089844 Z M 275.289062 56.96875 " clip-rule="nonzero"/></clipPath><clipPath id="9a96ed821a"><path d="M 275.289062 56.96875 L 374.804688 85.402344 L 345.339844 188.527344 L 245.824219 160.089844 Z M 275.289062 56.96875 " clip-rule="nonzero"/></clipPath><clipPath id="417a7db61c"><path d="M 295 101 L 327 101 L 327 126 L 295 126 Z M 295 101 " clip-rule="nonzero"/></clipPath><clipPath id="ef114fed00"><path d="M 275.289062 56.96875 L 374.804688 85.402344 L 345.339844 188.527344 L 245.824219 160.089844 Z M 275.289062 56.96875 " clip-rule="nonzero"/></clipPath><clipPath id="9092a7180e"><path d="M 275.289062 56.96875 L 374.804688 85.402344 L 345.339844 188.527344 L 245.824219 160.089844 Z M 275.289062 56.96875 " clip-rule="nonzero"/></clipPath><clipPath id="75891cd83e"><path d="M 339 90 L 354 90 L 354 100 L 339 100 Z M 339 90 " clip-rule="nonzero"/></clipPath><clipPath id="b37aa6b79d"><path d="M 275.289062 56.96875 L 374.804688 85.402344 L 345.339844 188.527344 L 245.824219 160.089844 Z M 275.289062 56.96875 " clip-rule="nonzero"/></clipPath><clipPath id="9ee71846c1"><path d="M 275.289062 56.96875 L 374.804688 85.402344 L 345.339844 188.527344 L 245.824219 160.089844 Z M 275.289062 56.96875 " clip-rule="nonzero"/></clipPath><clipPath id="aa255b1187"><path d="M 78.0625 71 L 255.8125 71 L 255.8125 293 L 78.0625 293 Z M 78.0625 71 " clip-rule="nonzero"/></clipPath></defs><g clip-path="url(#3571337008)"><path fill="#4f362a" d="M 347.292969 180.125 C 347.089844 151.507812 338.601562 124.496094 324.160156 101.296875 C 305.035156 63.320312 271.40625 33.164062 229.285156 19.726562 C 165.363281 -0.601562 94.160156 21.730469 52.304688 73.816406 C 34.652344 95.746094 23.488281 121.6875 18.941406 148.632812 C 8.242188 190.21875 14.261719 235.75 37.996094 273.191406 C 74.101562 330.160156 144.238281 358.238281 209.761719 342.191406 C 231.824219 336.777344 251.882812 326.816406 269.132812 313.375 C 315.332031 285.5625 346.824219 236.085938 347.292969 180.125 Z M 338.265625 175.777344 C 338.066406 206.332031 329.039062 235.617188 313.328125 260.558594 C 325.160156 238.160156 331.914062 212.820312 332.113281 186.542969 C 331.582031 118.546875 287.320312 56.832031 222.195312 36.039062 C 206.886719 31.160156 191.105469 28.75 175.394531 28.683594 C 190.839844 27.949219 206.484375 29.351562 221.726562 33.03125 C 263.382812 42.925781 298.886719 69 320.75 103.769531 C 331.78125 125.699219 338.066406 150.238281 338.265625 175.777344 Z M 227.476562 326.949219 C 212.636719 331.5625 197.324219 333.835938 182.148438 333.96875 C 134.675781 333.035156 88.074219 312.238281 57.386719 274.664062 C 16.734375 224.921875 12.1875 153.246094 47.558594 99.355469 C 65.273438 72.476562 90.75 52.621094 119.632812 40.921875 C 148.183594 30.691406 179.808594 28.683594 210.226562 36.375 C 279.5625 53.957031 328.101562 117.609375 328.636719 188.75 C 328.371094 222.847656 317.003906 255.410156 297.347656 281.75 C 278.960938 302.410156 255.089844 318.390625 227.476562 326.949219 Z M 282.972656 298.464844 C 278.425781 303.078125 273.546875 307.425781 268.398438 311.4375 C 259.839844 316.519531 250.8125 320.863281 241.25 324.273438 C 256.5625 317.789062 270.601562 309.03125 282.972656 298.464844 Z M 22.21875 146.828125 C 26.027344 132.050781 32.046875 117.675781 40.335938 104.4375 C 49.296875 89.996094 60.527344 77.425781 73.363281 66.996094 C 66.945312 72.546875 60.996094 78.628906 55.511719 85.25 C 32.246094 113.261719 20.277344 148.097656 20.410156 183.066406 C 19.609375 170.964844 20.277344 158.796875 22.21875 146.828125 Z M 43.613281 89.726562 C 79.515625 31.960938 150.253906 3.613281 216.179688 19.859375 C 247.535156 27.546875 274.816406 44.53125 295.609375 67.332031 C 278.160156 51.617188 257.097656 39.515625 233.898438 32.496094 C 196.386719 21.195312 156.003906 23.671875 120.433594 38.113281 C 92.957031 47.941406 68.015625 65.058594 49.160156 88.324219 C 40.871094 98.554688 33.984375 109.71875 28.636719 121.421875 C 32.378906 110.457031 37.328125 99.824219 43.613281 89.726562 Z M 219.253906 336.976562 C 158.078125 355.5 90.214844 333.902344 50.632812 283.757812 C 29.371094 256.746094 18.070312 223.582031 17.269531 190.152344 C 19.410156 215.226562 27.367188 239.898438 41.207031 261.828125 C 71.425781 309.632812 125.183594 337.578125 180.476562 336.976562 C 194.046875 337.179688 207.753906 335.773438 221.195312 332.699219 C 232.695312 330.023438 243.726562 326.148438 254.15625 321.265625 C 243.457031 327.886719 231.757812 333.167969 219.253906 336.976562 Z M 281.101562 303.011719 C 287.851562 296.59375 294.070312 289.574219 299.6875 282.085938 C 325.695312 252.734375 341.339844 214.289062 341.675781 173.570312 C 341.609375 164.613281 340.808594 155.785156 339.269531 147.09375 C 342.144531 158.460938 343.75 170.226562 343.816406 182.398438 C 343.480469 231.203125 318.945312 275.199219 281.101562 303.011719 Z M 281.101562 303.011719 " fill-opacity="1" fill-rule="nonzero"/></g><g clip-path="url(#95e882e8c1)"><g transform="matrix(1, 0, 0, 1, 0, 0)"><g clip-path="url(#ecf9b7c6b1)"><g clip-path="url(#b99b911602)"><g clip-path="url(#31243b1f3c)"><g clip-path="url(#1a99a29800)"><path fill="#cf8673" d="M 227.082031 314.449219 C 226.320312 314.746094 225.597656 314.996094 224.789062 315.253906 L 222.492188 316.058594 C 221.71875 316.265625 220.960938 316.5625 220.1875 316.773438 C 217.105469 317.699219 214.011719 318.535156 210.902344 319.285156 C 204.722656 320.734375 198.5625 321.734375 192.875 322.300781 C 187.1875 322.867188 181.894531 323.105469 177.414062 323.082031 C 172.929688 323.058594 169.273438 322.867188 166.691406 322.683594 C 166.691406 322.683594 166.328125 322.648438 165.742188 322.605469 C 165.464844 322.558594 165.101562 322.527344 164.652344 322.507812 C 164.238281 322.4375 163.785156 322.417969 163.234375 322.324219 C 161.179688 322.058594 158.554688 321.613281 156.074219 321.191406 C 151.054688 320.3125 146.585938 319.214844 148.523438 319.855469 C 148.523438 319.855469 148.523438 319.855469 148.296875 319.84375 C 148.109375 319.785156 147.746094 319.75 146.96875 319.648438 C 146.226562 319.492188 145.074219 319.269531 143.402344 318.902344 C 142.5625 318.671875 141.582031 318.421875 140.464844 318.148438 C 139.898438 317.964844 139.296875 317.835938 138.644531 317.667969 C 137.992188 317.5 137.289062 317.296875 136.535156 317.054688 C 133.582031 316.210938 129.421875 314.796875 124.796875 312.960938 C 124.179688 312.742188 123.652344 312.511719 123.070312 312.242188 C 122.492188 311.972656 121.878906 311.753906 121.296875 311.488281 C 120.101562 311 118.894531 310.425781 117.636719 309.816406 C 117.007812 309.507812 116.425781 309.242188 115.796875 308.933594 C 115.167969 308.628906 114.539062 308.324219 113.960938 308.054688 C 112.738281 307.394531 111.480469 306.78125 110.257812 306.121094 C 105.371094 303.476562 100.753906 300.5625 96.890625 297.890625 C 92.980469 295.183594 89.910156 292.703125 87.949219 291.035156 C 87.949219 291.035156 88.207031 291.535156 87.929688 291.488281 C 87.792969 291.464844 87.503906 291.328125 86.945312 290.921875 C 86.390625 290.515625 85.621094 289.875 84.46875 288.800781 C 82.214844 286.683594 79.25 283.742188 77.03125 281.265625 C 76.484375 280.632812 75.902344 280.050781 75.460938 279.492188 C 74.976562 278.984375 74.546875 278.515625 74.214844 278.117188 C 73.503906 277.285156 73.074219 276.816406 73.074219 276.816406 C 73.074219 276.816406 73.46875 277.335938 73.8125 277.820312 C 74.027344 278.058594 74.207031 278.34375 74.320312 278.503906 C 74.484375 278.703125 74.550781 278.828125 74.550781 278.828125 C 74.550781 278.828125 75.4375 279.941406 76.378906 281.097656 C 76.824219 281.652344 77.304688 282.160156 77.6875 282.59375 C 78.015625 282.992188 78.28125 283.265625 78.28125 283.265625 C 78.28125 283.265625 78.496094 283.5 78.828125 283.894531 C 79.15625 284.292969 79.742188 284.875 80.386719 285.582031 C 80.753906 285.925781 81.085938 286.324219 81.515625 286.792969 C 81.933594 287.175781 82.363281 287.648438 82.847656 288.15625 C 83.757812 289.132812 84.898438 290.121094 86.0625 291.285156 C 86.644531 291.867188 87.265625 292.398438 87.933594 292.964844 C 88.605469 293.53125 89.238281 294.152344 89.90625 294.71875 C 90.578125 295.285156 91.296875 295.890625 92.019531 296.496094 C 92.738281 297.101562 93.460938 297.707031 94.21875 298.261719 C 97.1875 300.667969 100.371094 302.996094 103.371094 305.039062 C 103.675781 305.261719 103.929688 305.445312 104.21875 305.578125 C 105.566406 306.488281 106.476562 307.15625 107.03125 307.5625 C 107.585938 307.96875 107.804688 308.203125 107.578125 308.191406 C 107.175781 308.210938 105.351562 307.417969 102.28125 305.789062 C 99.207031 304.160156 94.90625 301.558594 89.757812 297.789062 C 89.097656 297.308594 88.441406 296.828125 87.785156 296.347656 C 87.128906 295.867188 86.460938 295.296875 85.753906 294.78125 C 85.398438 294.523438 85.082031 294.210938 84.730469 293.953125 C 84.375 293.695312 84.058594 293.386719 83.65625 293.089844 C 82.933594 292.484375 82.214844 291.878906 81.492188 291.273438 C 78.597656 288.769531 75.609375 285.960938 72.519531 282.769531 C 71.238281 281.445312 69.996094 280.070312 68.703125 278.65625 C 68.054688 277.953125 67.445312 277.195312 66.800781 276.488281 C 66.632812 276.292969 66.46875 276.09375 66.304688 275.894531 C 66.140625 275.695312 65.972656 275.496094 65.808594 275.300781 C 65.480469 274.902344 65.199219 274.542969 64.867188 274.144531 C 62.328125 271.046875 59.785156 267.632812 57.402344 264.105469 C 52.589844 257.015625 48.226562 249.09375 44.738281 241.035156 C 41.253906 232.976562 38.589844 224.746094 36.875 217.132812 C 35.105469 209.480469 34.199219 202.457031 33.894531 196.726562 C 33.5 191.011719 33.710938 186.589844 34.03125 184.03125 C 34.136719 183.253906 34.25 182.25 34.347656 181.160156 C 34.484375 180.019531 34.644531 178.742188 34.84375 177.414062 C 35.261719 174.617188 35.699219 171.371094 36.394531 167.769531 C 37.089844 164.167969 37.921875 160.277344 39 156.257812 C 40.082031 152.242188 41.371094 148.144531 42.765625 144.125 C 45.636719 136.066406 49.277344 128.335938 52.746094 122.113281 C 56.214844 115.890625 59.464844 111.132812 61.171875 108.582031 C 62.882812 106.035156 63.332031 105.742188 62.902344 106.746094 C 62.671875 107.277344 62.304688 108.09375 61.71875 109.214844 C 61.585938 109.503906 61.449219 109.792969 61.265625 110.046875 C 61.132812 110.335938 60.960938 110.675781 60.789062 111.015625 C 60.445312 111.695312 60.101562 112.375 59.722656 113.105469 C 58.257812 116.066406 56.609375 119.589844 55.195312 122.898438 C 54.828125 123.714844 54.511719 124.570312 54.183594 125.339844 C 54.027344 125.765625 53.855469 126.105469 53.734375 126.484375 C 53.613281 126.859375 53.441406 127.199219 53.320312 127.578125 C 52.773438 128.960938 52.300781 130.242188 51.949219 131.148438 C 50.515625 134.90625 48.832031 139.644531 47.53125 143.96875 C 46.28125 148.324219 45.449219 152.214844 45.222656 154.222656 C 45.167969 154.722656 45.074219 155.273438 44.992188 155.914062 C 44.914062 156.554688 44.796875 157.242188 44.730469 157.96875 C 44.625 158.746094 44.484375 159.574219 44.394531 160.441406 C 44.269531 161.355469 44.105469 162.320312 44.042969 163.359375 C 43.527344 167.558594 42.992188 173.0625 42.996094 180.046875 C 42.976562 180.496094 43.007812 180.984375 43.003906 181.523438 C 42.996094 182.0625 43.039062 182.636719 43.046875 183.261719 C 43.0625 184.515625 43.15625 185.976562 43.222656 187.578125 C 43.449219 190.769531 43.769531 194.570312 44.316406 198.695312 C 44.917969 202.855469 45.746094 207.339844 46.8125 211.921875 C 47.933594 216.539062 49.328125 221.203125 50.917969 225.703125 C 52.5625 230.242188 54.402344 234.613281 56.277344 238.621094 C 58.203125 242.667969 60.199219 246.300781 62.023438 249.421875 C 62.980469 250.972656 63.839844 252.453125 64.667969 253.757812 C 65.496094 255.0625 66.261719 256.242188 66.949219 257.210938 C 68.285156 259.199219 69.265625 260.613281 69.675781 261.222656 C 70.082031 261.832031 70.488281 262.4375 70.898438 263.046875 C 71.304688 263.65625 71.761719 264.300781 72.171875 264.910156 C 72.398438 265.234375 72.628906 265.554688 72.859375 265.878906 C 73.085938 266.203125 73.316406 266.523438 73.546875 266.847656 C 74.003906 267.492188 74.550781 268.125 75.058594 268.808594 C 77.21875 271.472656 79.90625 274.371094 83.546875 277.65625 C 85.371094 279.300781 88.28125 281.894531 91.871094 284.832031 C 95.410156 287.730469 99.652344 290.835938 103.941406 293.664062 C 108.230469 296.496094 112.550781 298.960938 116.167969 300.90625 C 117.050781 301.398438 117.917969 301.800781 118.699219 302.21875 C 119.480469 302.632812 120.246094 302.960938 120.925781 303.304688 C 122.273438 303.902344 123.292969 304.417969 123.972656 304.757812 C 124.601562 305.0625 125.269531 305.320312 125.847656 305.589844 C 126.136719 305.722656 126.425781 305.855469 126.714844 305.992188 C 127.003906 306.125 127.296875 306.257812 127.585938 306.394531 C 128.164062 306.664062 128.832031 306.917969 129.460938 307.222656 C 130.175781 307.515625 130.894531 307.808594 131.75 308.121094 C 132.175781 308.28125 132.652344 308.476562 133.082031 308.632812 C 133.558594 308.828125 134.074219 308.972656 134.601562 309.203125 C 135.695312 309.617188 136.964844 310 138.386719 310.496094 C 141.300781 311.390625 144.867188 312.449219 149.671875 313.40625 C 150.1875 313.550781 150.738281 313.644531 151.292969 313.738281 C 150.550781 313.585938 149.761719 313.394531 148.96875 313.203125 C 148.78125 313.140625 148.644531 313.117188 148.453125 313.058594 C 148.179688 313.011719 147.941406 312.914062 147.664062 312.867188 C 144.398438 312.03125 141.019531 311.03125 137.804688 309.917969 C 131.46875 307.761719 126.851562 305.703125 123.855469 304.285156 C 122.355469 303.574219 121.199219 303.039062 120.46875 302.660156 C 119.738281 302.28125 119.347656 302.070312 119.347656 302.070312 C 119.347656 302.070312 118.992188 301.8125 118.402344 301.457031 C 117.859375 301.136719 117.101562 300.582031 116.359375 300.117188 C 115.652344 299.597656 114.90625 299.132812 114.351562 298.726562 C 113.796875 298.320312 113.441406 298.058594 113.441406 298.058594 C 113.441406 298.058594 113 297.816406 112.285156 297.523438 C 111.605469 297.179688 110.722656 296.691406 109.804688 296.25 C 109.566406 296.152344 109.363281 296.003906 109.125 295.90625 C 108.882812 295.8125 108.683594 295.664062 108.492188 295.601562 C 108.101562 295.394531 107.714844 295.1875 107.375 295.015625 C 106.691406 294.671875 106.253906 294.425781 106.253906 294.425781 C 106.253906 294.425781 106.203125 294.390625 106.101562 294.316406 C 106 294.242188 105.847656 294.132812 105.644531 293.984375 C 105.242188 293.6875 104.636719 293.246094 103.890625 292.777344 C 103.742188 292.667969 103.539062 292.519531 103.335938 292.371094 C 103.132812 292.222656 102.933594 292.074219 102.730469 291.925781 C 102.328125 291.632812 101.871094 291.300781 101.46875 291.003906 C 100.558594 290.339844 99.636719 289.585938 98.714844 288.832031 C 96.867188 287.328125 94.972656 285.785156 93.554688 284.4375 C 92.785156 283.796875 92.199219 283.214844 91.769531 282.742188 C 91.300781 282.324219 90.933594 281.976562 90.820312 281.816406 C 90.71875 281.742188 90.605469 281.578125 90.339844 281.308594 C 90.121094 281.074219 89.804688 280.761719 89.390625 280.378906 C 88.972656 279.996094 88.539062 279.527344 88.023438 279.070312 C 87.539062 278.5625 86.957031 277.980469 86.375 277.398438 C 83.980469 274.949219 80.910156 271.617188 78.015625 267.945312 C 75.082031 264.324219 72.28125 260.414062 70.136719 256.984375 C 69.601562 256.128906 69.117188 255.308594 68.59375 254.539062 C 68.351562 254.128906 68.121094 253.804688 67.929688 253.429688 C 67.738281 253.058594 67.507812 252.734375 67.316406 252.363281 C 66.945312 251.703125 66.589844 251.132812 66.28125 250.597656 C 65.976562 250.0625 65.769531 249.601562 65.578125 249.226562 C 65.195312 248.480469 64.757812 247.699219 64.359375 246.863281 C 63.964844 246.03125 63.464844 245.121094 63.015625 244.25 C 62.808594 243.789062 62.605469 243.328125 62.363281 242.917969 C 62.15625 242.457031 61.949219 242 61.707031 241.585938 C 61.296875 240.667969 60.847656 239.796875 60.539062 238.949219 C 60.140625 238.113281 59.828125 237.265625 59.496094 236.558594 C 59.199219 235.796875 58.964844 235.160156 58.710938 234.664062 C 58.492188 234.113281 58.285156 233.65625 58.195312 233.355469 C 58.101562 233.054688 57.988281 232.894531 57.988281 232.894531 C 57.988281 232.894531 57.816406 232.070312 57.730469 231.234375 C 57.558594 230.410156 57.472656 229.570312 57.472656 229.570312 C 57.472656 229.570312 57.253906 229.023438 56.855469 228.1875 C 56.457031 227.355469 56.058594 226.207031 55.566406 225.074219 C 55.347656 224.527344 55.117188 223.890625 54.949219 223.378906 C 54.726562 222.832031 54.558594 222.320312 54.402344 221.894531 C 54.25 221.472656 54.144531 221.085938 54.015625 220.835938 C 53.886719 220.585938 53.859375 220.414062 53.859375 220.414062 C 53.859375 220.414062 53.785156 220.199219 53.730469 219.851562 C 53.625 219.464844 53.457031 218.953125 53.296875 218.214844 C 53.101562 217.53125 52.878906 216.667969 52.679688 215.667969 C 52.480469 214.671875 52.214844 213.546875 51.9375 212.335938 C 51.84375 211.722656 51.699219 211.074219 51.554688 210.425781 C 51.5 210.074219 51.40625 209.777344 51.355469 209.425781 C 51.300781 209.078125 51.246094 208.726562 51.191406 208.378906 C 51.082031 207.675781 50.925781 206.941406 50.851562 206.191406 C 50.78125 205.441406 50.660156 204.652344 50.539062 203.867188 C 50.101562 200.753906 49.796875 197.351562 49.582031 193.9375 C 49.367188 190.523438 49.363281 187.03125 49.488281 183.789062 C 49.5625 180.507812 49.839844 177.375 50.167969 174.59375 C 50.792969 169.078125 51.734375 165.035156 52.21875 163.839844 C 52.671875 162.695312 53.003906 162.242188 53.066406 162.367188 C 53.132812 162.488281 53.042969 163.355469 52.84375 164.683594 C 52.8125 165.046875 52.726562 165.375 52.707031 165.824219 C 52.636719 166.238281 52.617188 166.691406 52.558594 167.191406 C 52.503906 167.691406 52.445312 168.195312 52.351562 168.746094 C 52.308594 169.335938 52.265625 169.921875 52.1875 170.5625 C 52.027344 171.839844 51.980469 173.28125 51.898438 174.773438 C 51.867188 176.300781 51.773438 178.015625 51.871094 179.792969 C 51.9375 183.410156 52.199219 187.710938 52.894531 192.484375 C 53.550781 197.308594 54.679688 202.554688 56.207031 208.09375 C 56.992188 210.835938 57.925781 213.691406 58.949219 216.535156 C 59.96875 219.378906 61.179688 222.28125 62.515625 225.117188 C 63.851562 227.957031 65.289062 230.867188 66.882812 233.667969 C 68.445312 236.515625 70.167969 239.246094 72.027344 242.003906 C 72.21875 242.378906 72.511719 242.824219 72.820312 243.359375 C 74.148438 245.574219 76.265625 249.140625 79.128906 253.175781 C 80.605469 255.183594 82.160156 257.40625 83.976562 259.589844 C 84.191406 259.824219 84.417969 260.148438 84.648438 260.46875 C 84.878906 260.792969 85.09375 261.027344 85.359375 261.300781 C 85.804688 261.859375 86.300781 262.453125 86.78125 262.960938 C 87.757812 264.0625 88.699219 265.21875 89.761719 266.304688 C 90.789062 267.445312 91.851562 268.535156 92.867188 269.585938 C 93.96875 270.625 95.03125 271.714844 96.132812 272.753906 C 96.398438 273.023438 96.703125 273.246094 96.96875 273.519531 L 97.804688 274.285156 C 98.375 274.78125 98.941406 275.273438 99.472656 275.816406 C 100.042969 276.3125 100.5625 276.769531 101.132812 277.261719 C 101.433594 277.484375 101.699219 277.757812 101.953125 277.941406 C 102.253906 278.164062 102.472656 278.398438 102.773438 278.621094 C 107.183594 282.238281 111.464844 285.289062 114.808594 287.503906 C 118.351562 289.867188 122.046875 292.027344 125.660156 293.972656 C 129.277344 295.921875 132.75 297.535156 135.957031 298.871094 C 142.285156 301.566406 147.136719 303.097656 148.308594 303.722656 C 148.308594 303.722656 148.082031 303.710938 147.703125 303.589844 C 147.292969 303.519531 146.777344 303.378906 146.085938 303.261719 C 145.761719 303.175781 145.394531 303.144531 145.019531 303.023438 C 144.605469 302.953125 144.230469 302.832031 143.816406 302.761719 C 142.972656 302.53125 142.007812 302.367188 141.117188 302.105469 C 139.949219 301.792969 138.742188 301.53125 137.613281 301.167969 C 135.277344 300.546875 132.246094 299.492188 129.835938 298.65625 C 128.640625 298.167969 127.597656 297.792969 126.84375 297.550781 C 126.125 297.261719 125.609375 297.117188 125.574219 297.167969 C 125.574219 297.167969 125.863281 297.300781 126.339844 297.496094 C 126.78125 297.742188 127.398438 297.960938 128.027344 298.265625 C 128.605469 298.535156 129.273438 298.789062 129.714844 299.035156 C 130.191406 299.226562 130.480469 299.363281 130.480469 299.363281 C 130.480469 299.363281 131.007812 299.59375 131.777344 299.921875 C 132.542969 300.253906 133.589844 300.628906 134.59375 301.054688 C 135.601562 301.480469 136.679688 301.804688 137.484375 302.085938 C 137.863281 302.203125 138.203125 302.375 138.429688 302.386719 C 138.667969 302.484375 138.804688 302.507812 138.804688 302.507812 C 138.804688 302.507812 139.535156 302.886719 140.214844 303.230469 C 140.554688 303.398438 140.945312 303.609375 141.199219 303.792969 C 141.300781 303.867188 141.4375 303.890625 141.539062 303.964844 C 141.589844 304 141.640625 304.039062 141.640625 304.039062 C 141.640625 304.039062 142.152344 304.183594 142.820312 304.4375 C 143.199219 304.558594 143.574219 304.679688 144.039062 304.785156 C 144.464844 304.945312 144.929688 305.050781 145.445312 305.195312 C 146.425781 305.445312 147.367188 305.75 148.070312 305.953125 C 148.773438 306.15625 149.238281 306.265625 149.238281 306.265625 L 147.625 306.246094 C 147.625 306.246094 148.039062 306.316406 148.742188 306.519531 C 149.066406 306.605469 149.53125 306.710938 150.082031 306.804688 C 150.636719 306.898438 151.238281 307.03125 151.890625 307.199219 C 154.625 307.804688 158.503906 308.546875 163.269531 309.242188 C 163.855469 309.285156 164.683594 309.425781 165.648438 309.589844 C 166.152344 309.644531 166.703125 309.738281 167.292969 309.78125 C 167.882812 309.824219 168.519531 309.90625 169.160156 309.984375 C 169.835938 310.015625 170.5625 310.082031 171.339844 310.1875 C 172.105469 310.203125 172.882812 310.304688 173.734375 310.308594 C 174.546875 310.359375 175.449219 310.402344 176.351562 310.441406 C 176.800781 310.460938 177.253906 310.480469 177.703125 310.5 C 178.152344 310.519531 178.640625 310.488281 179.09375 310.507812 C 182.910156 310.589844 187.191406 310.464844 191.65625 310.085938 C 196.121094 309.707031 200.820312 309.113281 205.414062 308.132812 C 210.023438 307.242188 214.628906 306.035156 218.90625 304.746094 C 223.222656 303.40625 227.195312 301.894531 230.769531 300.402344 C 234.296875 298.871094 237.332031 297.371094 239.785156 296.140625 C 240.976562 295.460938 242.058594 294.9375 242.917969 294.398438 C 243.773438 293.863281 244.523438 293.480469 245.054688 293.171875 C 245.054688 293.171875 245.179688 293.109375 245.394531 293.03125 C 245.605469 292.953125 245.855469 292.824219 246.226562 292.632812 C 246.5625 292.492188 246.988281 292.335938 247.398438 292.09375 C 247.609375 292.015625 247.859375 291.886719 248.070312 291.8125 C 248.320312 291.683594 248.53125 291.605469 248.78125 291.476562 C 249.699219 291.066406 250.660156 290.605469 251.28125 290.285156 C 251.992188 289.949219 252.402344 289.707031 252.402344 289.707031 C 252.402344 289.707031 252.636719 289.492188 252.945312 289.175781 C 253.144531 289.011719 253.34375 288.84375 253.539062 288.679688 C 253.777344 288.464844 253.972656 288.300781 254.210938 288.082031 C 254.679688 287.652344 255.113281 287.273438 255.421875 286.957031 C 255.621094 286.789062 255.730469 286.640625 255.855469 286.574219 C 255.929688 286.472656 256.019531 286.460938 256.019531 286.460938 C 256.019531 286.460938 256.378906 286.179688 256.9375 285.734375 C 257.53125 285.242188 258.375 284.617188 259.367188 283.792969 C 261.402344 282.179688 264.003906 279.894531 266.578125 277.4375 C 267.863281 276.207031 269.152344 274.976562 270.316406 273.8125 C 271.515625 272.597656 272.589844 271.445312 273.554688 270.445312 C 274.011719 269.925781 274.484375 269.496094 274.902344 269.027344 C 275.285156 268.609375 275.667969 268.191406 275.976562 267.875 C 276.597656 267.242188 277.015625 266.773438 277.179688 266.660156 C 278.40625 265.617188 277.59375 267.042969 277.59375 267.042969 C 277.59375 267.042969 278.074219 266.386719 278.902344 265.363281 C 279.085938 265.109375 279.308594 264.808594 279.53125 264.503906 C 279.753906 264.199219 279.972656 263.898438 280.234375 263.542969 C 280.75 262.835938 281.269531 262.128906 281.859375 261.320312 C 282.414062 260.566406 283.003906 259.757812 283.546875 258.910156 C 284.085938 258.066406 284.679688 257.257812 285.183594 256.464844 C 285.6875 255.667969 286.152344 254.925781 286.621094 254.179688 C 286.730469 254.03125 286.839844 253.878906 286.9375 253.640625 C 287.050781 253.488281 287.109375 253.300781 287.222656 253.148438 C 287.441406 252.84375 287.578125 252.554688 287.761719 252.304688 C 288.082031 251.761719 288.488281 251.207031 288.878906 250.5625 C 289.273438 249.917969 289.742188 249.175781 290.207031 248.429688 C 290.675781 247.6875 291.140625 246.941406 291.644531 246.148438 C 292.113281 245.40625 292.617188 244.609375 292.996094 243.878906 C 293.890625 242.441406 294.613281 241.03125 295.179688 240.046875 C 295.460938 239.558594 295.667969 239.167969 295.804688 238.878906 C 295.9375 238.585938 296.046875 238.4375 296.046875 238.4375 L 295.367188 238.09375 C 295.367188 238.09375 295.464844 237.855469 295.75 237.363281 C 295.84375 237.125 295.980469 236.835938 296.152344 236.496094 C 296.320312 236.15625 296.480469 235.726562 296.675781 235.25 C 296.871094 234.773438 297.101562 234.242188 297.332031 233.714844 C 297.5625 233.1875 297.820312 232.519531 298.074219 231.851562 C 298.328125 231.1875 298.621094 230.46875 298.914062 229.753906 C 299.207031 229.035156 299.484375 228.230469 299.800781 227.375 C 300.988281 224.058594 302.304688 220.136719 303.417969 215.753906 C 304.53125 211.375 305.574219 206.554688 306.242188 201.617188 C 307.703125 191.671875 307.804688 181.042969 306.898438 172.003906 C 306.46875 167.503906 305.832031 163.390625 305.167969 159.957031 C 304.992188 159.132812 304.820312 158.308594 304.648438 157.484375 C 304.441406 156.710938 304.28125 155.972656 304.136719 155.324219 C 303.992188 154.675781 303.792969 153.988281 303.664062 153.429688 C 303.480469 152.828125 303.398438 152.304688 303.230469 151.792969 C 303.230469 151.792969 303.21875 151.707031 303.203125 151.617188 C 303.140625 151.492188 303.113281 151.320312 303.070312 151.058594 C 302.953125 150.582031 302.808594 149.933594 302.597656 149.160156 C 302.179688 147.613281 301.644531 145.589844 301.03125 143.671875 C 299.808594 139.828125 298.53125 136.488281 298.863281 138.050781 C 298.863281 138.050781 298.863281 138.050781 298.335938 136.96875 C 298.117188 136.417969 297.71875 135.585938 297.167969 134.328125 C 296.578125 133.121094 295.867188 131.4375 294.816406 129.273438 C 293.765625 127.105469 292.226562 124.121094 290.273438 120.75 C 288.28125 117.433594 285.921875 113.769531 283.417969 110.304688 C 280.910156 106.84375 278.203125 103.542969 275.769531 100.832031 C 275.488281 100.472656 275.171875 100.164062 274.855469 99.851562 C 274.539062 99.542969 274.261719 99.183594 273.996094 98.914062 C 273.679688 98.601562 273.449219 98.28125 273.183594 98.007812 C 272.917969 97.734375 272.652344 97.464844 272.382812 97.191406 C 271.851562 96.648438 271.421875 96.175781 270.992188 95.707031 C 270.558594 95.234375 270.140625 94.851562 269.773438 94.503906 C 269.773438 94.503906 269.929688 94.929688 269.691406 94.832031 C 269.554688 94.808594 269.351562 94.660156 268.945312 94.363281 C 268.578125 94.019531 267.960938 93.488281 267.113281 92.632812 C 266.261719 91.78125 265.261719 90.816406 264.261719 89.851562 C 263.78125 89.34375 263.210938 88.847656 262.691406 88.390625 C 262.175781 87.933594 261.691406 87.429688 261.1875 87.058594 C 260.199219 86.179688 259.328125 85.464844 258.710938 84.933594 C 258.089844 84.402344 257.6875 84.109375 257.6875 84.109375 C 257.6875 84.109375 258.054688 84.453125 258.371094 84.761719 C 258.570312 84.910156 258.738281 85.109375 258.886719 85.21875 C 259.039062 85.332031 259.105469 85.457031 259.105469 85.457031 C 259.105469 85.457031 259.886719 86.183594 260.6875 87 C 260.851562 87.199219 261.105469 87.382812 261.269531 87.582031 C 261.433594 87.78125 261.636719 87.929688 261.75 88.089844 C 262.066406 88.398438 262.230469 88.597656 262.230469 88.597656 C 262.230469 88.597656 262.433594 88.746094 262.699219 89.019531 C 263.015625 89.328125 263.433594 89.710938 263.964844 90.253906 C 264.5 90.800781 265.132812 91.417969 265.828125 92.160156 C 266.527344 92.902344 267.324219 93.71875 268.1875 94.660156 C 268.617188 95.132812 269.050781 95.601562 269.480469 96.074219 C 269.695312 96.308594 269.910156 96.542969 270.175781 96.816406 C 270.394531 97.050781 270.570312 97.335938 270.835938 97.609375 C 271.28125 98.167969 271.714844 98.636719 272.15625 99.195312 C 272.601562 99.753906 273.046875 100.3125 273.492188 100.871094 C 273.9375 101.429688 274.382812 101.988281 274.824219 102.546875 C 275.269531 103.101562 275.714844 103.660156 276.121094 104.269531 C 276.976562 105.4375 277.828125 106.601562 278.578125 107.695312 C 278.742188 107.894531 278.871094 108.144531 278.988281 108.304688 C 279.164062 108.589844 279.332031 108.789062 279.457031 109.039062 C 279.585938 109.285156 279.699219 109.449219 279.816406 109.609375 C 280.007812 109.980469 280.1875 110.269531 280.316406 110.515625 C 280.570312 111.015625 280.597656 111.191406 280.460938 111.167969 C 280.320312 111.144531 280.003906 110.832031 279.472656 110.289062 C 279.207031 110.015625 278.890625 109.707031 278.609375 109.347656 C 278.28125 108.949219 277.863281 108.566406 277.433594 108.097656 C 275.707031 106.214844 273.257812 103.414062 269.980469 100.160156 C 269.179688 99.34375 268.332031 98.492188 267.34375 97.613281 C 266.878906 97.191406 266.445312 96.722656 265.925781 96.265625 C 265.410156 95.808594 264.941406 95.386719 264.460938 94.878906 C 264.242188 94.644531 263.941406 94.421875 263.675781 94.152344 C 263.371094 93.929688 263.15625 93.695312 262.851562 93.472656 C 262.335938 93.015625 261.765625 92.523438 261.195312 92.027344 C 260.058594 91.039062 258.917969 90.050781 257.605469 89.089844 C 255.558594 87.4375 253.285156 85.773438 250.964844 84.074219 C 250.359375 83.628906 249.765625 83.273438 249.160156 82.832031 C 248.554688 82.386719 247.910156 81.996094 247.265625 81.601562 C 246.964844 81.378906 246.625 81.207031 246.320312 80.988281 C 246.019531 80.765625 245.679688 80.59375 245.375 80.371094 C 244.730469 79.980469 244.089844 79.585938 243.394531 79.15625 C 240.734375 77.597656 237.988281 76.050781 235.167969 74.609375 C 232.347656 73.164062 229.414062 71.871094 226.535156 70.617188 C 220.699219 68.207031 214.839844 66.246094 209.429688 64.847656 C 208.777344 64.679688 208.074219 64.472656 207.421875 64.308594 C 206.769531 64.140625 206.113281 63.972656 205.425781 63.855469 C 204.121094 63.519531 202.878906 63.308594 201.621094 63.011719 C 201.019531 62.878906 200.417969 62.75 199.816406 62.617188 C 199.214844 62.488281 198.660156 62.394531 198.109375 62.300781 C 197.558594 62.207031 197.003906 62.113281 196.453125 62.019531 C 195.902344 61.925781 195.386719 61.78125 194.886719 61.726562 C 194.382812 61.667969 193.871094 61.523438 193.417969 61.503906 C 192.953125 61.398438 192.453125 61.339844 192.039062 61.269531 C 191.125 61.144531 190.296875 61.003906 189.519531 60.898438 C 187.964844 60.691406 186.757812 60.429688 185.792969 60.265625 C 183.523438 59.769531 179.121094 59.105469 173.710938 58.871094 C 170.953125 58.714844 168 58.722656 164.871094 58.761719 C 161.707031 58.847656 158.480469 59.125 155.214844 59.449219 C 148.703125 60.1875 142.234375 61.503906 136.871094 63.007812 C 131.503906 64.507812 127.230469 66.113281 125.050781 67.078125 C 123.953125 67.515625 123.28125 67.796875 122.980469 67.890625 C 122.683594 67.980469 122.757812 67.878906 123.117188 67.601562 C 123.277344 67.484375 123.5625 67.304688 123.847656 67.128906 C 124.136719 66.949219 124.546875 66.707031 124.957031 66.464844 C 125.367188 66.222656 125.863281 65.964844 126.347656 65.621094 C 126.882812 65.316406 127.378906 65.058594 128.003906 64.738281 C 130.316406 63.484375 133.203125 62.1875 135.894531 61.054688 C 136.566406 60.769531 137.242188 60.488281 137.875 60.253906 C 138.511719 60.019531 139.148438 59.789062 139.695312 59.570312 C 140.878906 59.117188 141.863281 58.832031 142.625 58.535156 C 145.742188 57.558594 149.699219 56.496094 153.308594 55.804688 C 156.902344 55.023438 160.140625 54.523438 161.738281 54.140625 C 162.511719 53.929688 163.5625 53.769531 164.785156 53.578125 C 165.398438 53.484375 166.097656 53.375 166.847656 53.304688 C 167.597656 53.234375 168.386719 53.109375 169.273438 53.0625 C 172.710938 52.710938 177.238281 52.457031 183.011719 52.414062 C 183.375 52.445312 183.773438 52.429688 184.222656 52.449219 C 184.675781 52.46875 185.125 52.488281 185.664062 52.496094 C 186.203125 52.5 186.742188 52.507812 187.328125 52.550781 C 187.917969 52.59375 188.542969 52.585938 189.222656 52.617188 C 190.523438 52.636719 191.976562 52.773438 193.519531 52.890625 C 195.058594 53.011719 196.699219 53.203125 198.429688 53.382812 C 201.902344 53.832031 205.664062 54.414062 209.503906 55.207031 C 213.34375 56 217.3125 57.042969 221.167969 58.238281 C 228.882812 60.625 236.167969 63.707031 241.632812 66.621094 C 244.402344 68.027344 246.671875 69.378906 248.488281 70.394531 C 249.371094 70.886719 250.078125 71.402344 250.667969 71.761719 C 251.261719 72.117188 251.664062 72.410156 251.917969 72.597656 C 252.421875 72.964844 252.929688 73.335938 253.433594 73.707031 C 253.9375 74.074219 254.441406 74.445312 255 74.851562 C 256.023438 75.679688 257.121094 76.402344 258.292969 77.339844 C 258.902344 77.785156 259.507812 78.226562 260.113281 78.671875 C 260.769531 79.152344 261.390625 79.683594 262.046875 80.164062 C 262.753906 80.679688 263.421875 81.25 264.179688 81.804688 C 264.585938 82.097656 264.9375 82.359375 265.34375 82.652344 C 265.746094 82.949219 266.148438 83.246094 266.515625 83.589844 C 266.921875 83.886719 267.425781 84.257812 267.945312 84.714844 C 268.464844 85.171875 268.980469 85.628906 269.636719 86.109375 C 269.941406 86.328125 270.257812 86.640625 270.574219 86.949219 C 270.890625 87.257812 271.246094 87.515625 271.5625 87.824219 C 271.878906 88.132812 272.195312 88.445312 272.597656 88.738281 C 272.914062 89.046875 273.28125 89.394531 273.648438 89.742188 C 276.484375 92.4375 279.589844 95.71875 282.394531 99.089844 C 285.203125 102.460938 287.796875 105.910156 289.808594 108.777344 C 290.085938 109.136719 290.277344 109.511719 290.507812 109.832031 C 290.738281 110.15625 290.929688 110.53125 291.160156 110.851562 C 291.617188 111.5 291.972656 112.070312 292.332031 112.640625 C 292.996094 113.746094 293.566406 114.554688 293.875 115.089844 C 294.230469 115.660156 294.539062 116.195312 294.84375 116.730469 C 294.960938 116.890625 295.039062 117.101562 295.203125 117.300781 C 295.382812 117.585938 295.574219 117.960938 295.714844 118.296875 C 295.957031 118.707031 296.164062 119.167969 296.417969 119.664062 C 296.738281 120.289062 297.074219 120.996094 297.507812 121.78125 C 297.636719 122.03125 297.816406 122.316406 297.90625 122.613281 C 298.035156 122.863281 298.164062 123.113281 298.304688 123.449219 C 298.433594 123.699219 298.574219 124.035156 298.703125 124.28125 C 298.84375 124.621094 299.023438 124.90625 299.214844 125.277344 C 299.417969 125.738281 299.625 126.199219 299.882812 126.699219 C 299.664062 126.148438 299.457031 125.6875 299.289062 125.175781 C 299.238281 125.140625 299.222656 125.054688 299.222656 125.054688 C 299.003906 124.503906 298.773438 123.871094 298.4375 123.160156 C 298.308594 122.910156 298.183594 122.660156 298.054688 122.414062 C 297.863281 122.039062 297.667969 121.667969 297.464844 121.207031 C 297.078125 120.460938 296.644531 119.675781 296.09375 118.730469 C 296.019531 118.519531 295.851562 118.320312 295.726562 118.070312 C 293.589844 114.417969 290.25 109.023438 285.949219 103.242188 C 281.652344 97.457031 276.308594 91.300781 270.636719 85.910156 C 265.003906 80.46875 260.292969 76.941406 257.199219 74.601562 C 256.390625 74.007812 255.734375 73.527344 255.128906 73.085938 C 254.523438 72.640625 254.03125 72.359375 253.625 72.0625 C 253.222656 71.769531 252.917969 71.546875 252.679688 71.449219 C 252.476562 71.300781 252.378906 71.226562 252.378906 71.226562 C 252.378906 71.226562 251.972656 70.929688 251.355469 70.398438 C 250.746094 69.957031 249.925781 69.277344 249.15625 68.636719 C 248.347656 68.042969 247.523438 67.367188 246.917969 66.921875 C 246.3125 66.480469 245.859375 66.144531 245.859375 66.144531 C 245.859375 66.144531 245.332031 65.914062 244.550781 65.5 C 243.730469 65.132812 242.675781 64.667969 241.566406 64.167969 C 240.511719 63.707031 239.367188 63.253906 238.546875 62.890625 C 238.121094 62.730469 237.78125 62.5625 237.542969 62.464844 C 237.300781 62.367188 237.164062 62.34375 237.164062 62.34375 C 237.164062 62.34375 236.875 62.207031 236.332031 61.890625 C 235.804688 61.65625 235.023438 61.242188 234.105469 60.800781 C 233.1875 60.363281 232.078125 59.863281 230.921875 59.324219 C 230.339844 59.054688 229.675781 58.800781 229.097656 58.53125 C 228.464844 58.226562 227.800781 57.972656 227.183594 57.753906 C 225.886719 57.191406 224.554688 56.683594 223.273438 56.210938 C 221.992188 55.738281 220.757812 55.300781 219.714844 54.925781 C 218.621094 54.511719 217.679688 54.210938 216.925781 53.96875 C 216.171875 53.726562 215.65625 53.582031 215.453125 53.433594 C 215.214844 53.335938 214.460938 53.097656 213.191406 52.710938 C 211.976562 52.363281 210.292969 51.90625 208.332031 51.402344 C 204.378906 50.449219 199.109375 49.382812 193.582031 48.671875 C 188.050781 47.960938 182.316406 47.640625 177.46875 47.585938 C 172.625 47.527344 168.671875 47.738281 166.632812 47.875 C 166.144531 47.90625 165.609375 47.898438 165.082031 47.980469 C 164.542969 47.972656 164.019531 48.054688 163.445312 48.097656 C 162.867188 48.144531 162.292969 48.1875 161.71875 48.234375 C 161.144531 48.277344 160.53125 48.371094 159.957031 48.414062 C 159.34375 48.511719 158.769531 48.554688 158.15625 48.648438 C 157.542969 48.746094 156.929688 48.839844 156.355469 48.882812 C 155.167969 49.023438 153.996094 49.25 152.90625 49.460938 C 151.769531 49.636719 150.773438 49.839844 149.824219 50.074219 C 148.910156 50.261719 148.085938 50.433594 147.351562 50.589844 C 146.613281 50.75 146.050781 50.882812 145.703125 50.9375 C 145.316406 51.042969 145.140625 51.066406 145.140625 51.066406 C 145.140625 51.066406 144.113281 51.09375 143.140625 51.15625 C 142.652344 51.183594 142.113281 51.179688 141.761719 51.234375 C 141.363281 51.25 141.101562 51.289062 141.101562 51.289062 C 141.101562 51.289062 140.378906 51.539062 139.316406 51.925781 C 138.808594 52.09375 138.171875 52.328125 137.5 52.609375 C 136.863281 52.84375 136.140625 53.089844 135.46875 53.371094 C 134.070312 53.902344 132.636719 54.480469 131.628906 54.90625 C 130.621094 55.332031 129.910156 55.664062 129.910156 55.664062 C 129.910156 55.664062 128.976562 55.988281 127.332031 56.648438 C 126.484375 56.957031 125.5625 57.367188 124.378906 57.820312 C 123.832031 58.039062 123.195312 58.273438 122.574219 58.59375 C 121.898438 58.875 121.277344 59.195312 120.554688 59.441406 C 117.789062 60.675781 114.542969 62.253906 111.195312 64.070312 C 107.761719 65.902344 104.195312 68.023438 100.703125 70.355469 C 97.164062 72.648438 93.75 75.191406 90.550781 77.65625 C 87.363281 80.210938 84.390625 82.6875 81.835938 85.007812 C 79.285156 87.328125 77.109375 89.457031 75.4375 91.105469 C 73.765625 92.75 72.515625 93.929688 71.921875 94.425781 C 71.277344 94.882812 70.792969 95.226562 70.507812 95.40625 C 70.21875 95.582031 70.097656 95.648438 70.121094 95.511719 C 70.144531 95.371094 70.289062 95.171875 70.585938 94.765625 C 70.882812 94.363281 71.339844 93.84375 71.945312 93.121094 C 74.253906 90.390625 78.675781 85.40625 85.246094 78.972656 C 88.550781 75.730469 92.636719 72.050781 97.535156 68.113281 C 99.96875 66.167969 102.609375 64.148438 105.476562 62.136719 C 108.34375 60.125 111.351562 58.136719 114.632812 56.195312 C 121.109375 52.328125 128.414062 48.597656 136.3125 45.539062 C 144.25 42.429688 152.808594 39.851562 161.710938 38.070312 C 162.324219 37.972656 163.023438 37.863281 163.863281 37.78125 C 164.734375 37.644531 165.800781 37.570312 166.898438 37.445312 C 168.050781 37.355469 169.289062 37.253906 170.699219 37.125 C 173.453125 36.964844 176.605469 36.792969 180.097656 36.789062 C 187.03125 36.746094 195.1875 37.363281 203.464844 38.765625 C 211.742188 40.171875 220.105469 42.414062 227.597656 45.105469 C 235.1875 47.558594 241.722656 50.710938 246.523438 53.371094 C 251.664062 56.203125 256.59375 59.421875 261.175781 62.699219 C 265.710938 65.9375 269.816406 69.332031 273.257812 72.472656 C 276.699219 75.609375 279.527344 78.53125 281.582031 80.808594 C 282.609375 81.949219 283.484375 82.980469 284.09375 83.734375 C 284.753906 84.527344 285.160156 85.136719 285.402344 85.546875 C 285.402344 85.546875 285.1875 85.3125 284.820312 84.964844 C 284.453125 84.621094 283.921875 84.074219 283.238281 83.417969 C 282.605469 82.800781 281.769531 82.035156 280.933594 81.269531 C 280.050781 80.464844 279.078125 79.675781 278.140625 78.835938 C 276.863281 77.824219 275.625 76.761719 274.363281 75.839844 C 271.808594 73.816406 268.476562 71.375 265.675781 69.480469 C 264.980469 69.050781 264.324219 68.570312 263.769531 68.164062 C 263.175781 67.808594 262.671875 67.4375 262.179688 67.15625 C 261.285156 66.578125 260.707031 66.308594 260.667969 66.359375 C 260.667969 66.359375 262.082031 67.394531 263.535156 68.378906 C 264.949219 69.414062 266.324219 70.5 266.324219 70.5 C 266.324219 70.5 266.933594 70.945312 267.753906 71.621094 C 268.207031 71.953125 268.675781 72.375 269.230469 72.78125 C 269.75 73.238281 270.304688 73.644531 270.875 74.140625 C 272 75.039062 273.050781 76.042969 273.921875 76.757812 C 274.742188 77.4375 275.277344 77.980469 275.277344 77.980469 C 275.277344 77.980469 275.9375 78.773438 276.558594 79.617188 C 276.890625 80.015625 277.21875 80.410156 277.449219 80.734375 C 277.679688 81.054688 277.84375 81.253906 277.84375 81.253906 C 277.84375 81.253906 278.273438 81.726562 278.957031 82.382812 C 279.324219 82.726562 279.707031 83.160156 280.125 83.542969 C 280.554688 84.015625 281.023438 84.433594 281.453125 84.90625 C 281.882812 85.375 282.316406 85.847656 282.746094 86.316406 C 283.128906 86.75 283.507812 87.183594 283.875 87.53125 C 284.242188 87.875 284.472656 88.199219 284.636719 88.398438 C 284.800781 88.597656 284.914062 88.757812 284.914062 88.757812 C 284.914062 88.757812 284.511719 88.460938 284.058594 88.128906 C 283.652344 87.832031 283.199219 87.5 283.199219 87.5 C 283.199219 87.5 283.300781 87.574219 283.464844 87.773438 C 283.628906 87.972656 283.894531 88.242188 284.210938 88.554688 C 284.542969 88.949219 284.960938 89.332031 285.40625 89.890625 C 285.886719 90.398438 286.433594 91.03125 286.976562 91.664062 C 289.324219 94.386719 292.589844 98.40625 295.941406 103.574219 C 296.171875 103.898438 296.414062 104.308594 296.65625 104.71875 C 296.949219 105.164062 297.207031 105.660156 297.601562 106.183594 C 297.957031 106.753906 298.316406 107.328125 298.734375 108.023438 C 299.105469 108.679688 299.527344 109.378906 300 110.109375 C 301.761719 113.105469 303.835938 116.949219 305.953125 121.367188 C 308.03125 125.839844 310.15625 130.882812 311.9375 136.292969 C 312.132812 136.980469 312.414062 137.652344 312.609375 138.339844 C 312.808594 139.027344 313.054688 139.75 313.25 140.433594 C 313.691406 141.84375 314.046875 143.265625 314.488281 144.675781 C 315.246094 147.558594 315.96875 150.492188 316.554688 153.402344 C 317.777344 159.257812 318.574219 165.269531 319.003906 170.933594 C 319.429688 176.601562 319.46875 182.058594 319.289062 186.96875 C 318.917969 196.699219 317.652344 204.148438 317.136719 207.183594 C 317.136719 207.183594 317.113281 207.320312 316.980469 207.609375 C 316.882812 207.847656 316.8125 208.261719 316.617188 208.742188 C 316.316406 209.683594 315.914062 210.863281 315.480469 212.097656 C 315.042969 213.328125 314.644531 214.511719 314.292969 215.414062 C 313.941406 216.320312 313.722656 216.9375 313.722656 216.9375 C 313.722656 216.9375 313.6875 217.300781 313.59375 217.851562 C 313.5 218.402344 313.398438 219.179688 313.292969 219.957031 C 313.191406 220.734375 313.085938 221.511719 312.992188 222.066406 C 312.898438 222.617188 312.828125 223.03125 312.828125 223.03125 C 312.828125 223.03125 312.683594 223.546875 312.421875 224.4375 C 312.15625 225.328125 311.734375 226.648438 311.210938 228.207031 C 310.171875 231.324219 308.65625 235.410156 306.875 239.535156 C 305.132812 243.613281 303.027344 247.65625 301.3125 250.742188 C 299.597656 253.828125 298.183594 255.972656 297.886719 256.378906 C 297.246094 257.148438 297.054688 257.089844 297.101562 256.8125 C 297.125 256.675781 297.1875 256.484375 297.210938 256.347656 C 297.234375 256.210938 297.308594 256.109375 297.308594 256.109375 C 297.308594 256.109375 297.160156 256.3125 296.953125 256.703125 C 296.742188 257.089844 296.386719 257.683594 295.996094 258.328125 C 295.5625 259.019531 295.058594 259.816406 294.535156 260.746094 C 294.289062 261.1875 293.957031 261.644531 293.671875 262.136719 C 293.339844 262.589844 293.023438 263.132812 292.6875 263.585938 C 292.320312 264.089844 292.039062 264.582031 291.667969 265.085938 C 291.296875 265.59375 290.929688 266.097656 290.609375 266.640625 C 290.238281 267.144531 289.871094 267.648438 289.5 268.15625 C 289.132812 268.660156 288.761719 269.164062 288.429688 269.621094 C 288.058594 270.125 287.726562 270.578125 287.394531 271.035156 C 287.0625 271.488281 286.679688 271.90625 286.382812 272.308594 C 285.742188 273.082031 285.1875 273.839844 284.691406 274.40625 C 282.730469 276.769531 279.167969 280.367188 275.984375 283.234375 C 275.785156 283.398438 275.585938 283.5625 275.386719 283.730469 C 275.191406 283.894531 274.992188 284.058594 274.792969 284.222656 C 274.398438 284.554688 274 284.882812 273.691406 285.203125 C 273.332031 285.480469 273.023438 285.796875 272.660156 286.078125 C 272.339844 286.304688 272.066406 286.570312 271.746094 286.800781 C 271.1875 287.246094 270.753906 287.625 270.429688 287.855469 C 270.105469 288.085938 269.910156 288.25 269.910156 288.25 L 270.628906 288.855469 C 270.628906 288.855469 270.355469 289.121094 269.835938 289.515625 C 269.601562 289.730469 269.242188 290.011719 268.882812 290.289062 C 268.484375 290.621094 268.085938 290.949219 267.566406 291.34375 C 265.621094 292.945312 262.707031 295.230469 259.066406 297.765625 C 255.429688 300.300781 250.945312 303.144531 245.945312 305.84375 C 245.320312 306.164062 244.664062 306.535156 244.039062 306.855469 C 243.417969 307.175781 242.757812 307.546875 242.050781 307.878906 C 240.71875 308.53125 239.347656 309.238281 237.96875 309.855469 C 235.214844 311.175781 232.261719 312.351562 229.3125 313.523438 C 228.5625 313.90625 227.839844 314.152344 227.082031 314.449219 Z M 304.566406 135.554688 C 304.4375 135.304688 304.296875 134.96875 304.105469 134.597656 C 303.914062 134.222656 303.722656 133.851562 303.515625 133.390625 C 303.375 133.054688 303.230469 132.714844 303.039062 132.34375 C 302.835938 131.882812 302.628906 131.421875 302.371094 130.925781 C 302.371094 130.925781 302.320312 130.886719 302.359375 130.835938 C 302.488281 131.085938 302.613281 131.335938 302.65625 131.597656 C 302.667969 131.683594 302.734375 131.808594 302.785156 131.847656 C 302.835938 131.882812 302.796875 131.933594 302.847656 131.96875 C 302.910156 132.09375 302.988281 132.304688 303.054688 132.429688 C 303.132812 132.644531 303.207031 132.855469 303.285156 133.066406 C 303.363281 133.277344 303.476562 133.441406 303.503906 133.613281 C 303.582031 133.828125 303.648438 133.949219 303.722656 134.164062 C 303.738281 134.25 303.789062 134.289062 303.851562 134.410156 C 303.917969 134.535156 303.929688 134.625 303.996094 134.75 C 304.058594 134.871094 304.070312 134.960938 304.136719 135.085938 C 304.214844 135.296875 304.339844 135.546875 304.382812 135.808594 C 304.511719 136.054688 304.601562 136.355469 304.679688 136.566406 C 304.886719 137.027344 305.003906 137.503906 305.207031 137.964844 C 305.335938 138.210938 305.378906 138.476562 305.46875 138.773438 C 305.546875 138.984375 305.625 139.199219 305.703125 139.410156 C 305.792969 139.707031 305.933594 140.046875 306.074219 140.382812 C 306.074219 140.382812 306.0625 140.292969 306.0625 140.292969 C 306.035156 140.121094 305.945312 139.820312 305.890625 139.46875 C 305.835938 139.121094 305.695312 138.785156 305.652344 138.519531 C 305.5625 138.222656 305.472656 137.921875 305.429688 137.660156 C 305.367188 137.535156 305.351562 137.449219 305.339844 137.359375 C 305.261719 137.148438 305.234375 136.972656 305.234375 136.972656 C 305.234375 136.972656 305.144531 136.675781 304.566406 135.554688 Z M 304.566406 135.554688 " fill-opacity="1" fill-rule="nonzero"/></g></g></g></g></g></g><g clip-path="url(#100ffa75ca)"><g clip-path="url(#608d286c82)"><g clip-path="url(#225bb727a4)"><path fill="#cf8673" d="M 332.425781 114.1875 C 351.246094 119.792969 361.484375 122.011719 363.140625 120.839844 C 364.359375 120.398438 364.890625 119.476562 364.738281 118.070312 L 362.652344 110.503906 C 362.5 110.09375 362.324219 107.875 362.128906 103.851562 C 361.933594 103.035156 361.496094 102.289062 360.820312 101.613281 C 357.644531 99.480469 355.796875 97.984375 355.277344 97.117188 C 354.75 96.4375 354.289062 95.65625 353.894531 94.769531 C 352.699219 90.820312 351.742188 88.453125 351.023438 87.664062 C 350.648438 86.921875 349.214844 85.433594 346.722656 83.195312 C 344.265625 79.3125 342.824219 77.191406 342.398438 76.832031 C 341.832031 76.28125 341.230469 76.0625 340.582031 76.171875 C 338.476562 76.546875 336.855469 78.835938 335.726562 83.039062 C 332.167969 95.484375 330.582031 103.824219 330.972656 108.058594 Z M 332.425781 114.1875 " fill-opacity="1" fill-rule="nonzero"/></g></g></g><g clip-path="url(#ece529a543)"><g clip-path="url(#8032627bda)"><g clip-path="url(#56b7846537)"><path fill="#cf8673" d="M 335.296875 109.949219 C 338.832031 113.039062 339.34375 118.675781 336.820312 126.859375 C 334.894531 132.042969 330.453125 136.582031 323.496094 140.472656 C 316.855469 144.015625 307.746094 147.289062 296.171875 150.292969 C 276 153.785156 264.121094 156.027344 260.53125 157.019531 C 256.855469 157.507812 254.4375 157.710938 253.277344 157.632812 C 252.539062 157.554688 252.199219 157.308594 252.261719 156.894531 L 296.007812 111.457031 C 299.566406 107.898438 302.734375 105.335938 305.523438 103.773438 C 310.46875 101.058594 315.292969 99.996094 319.996094 100.585938 C 327.199219 102.136719 332.445312 104.738281 335.730469 108.394531 Z M 335.296875 109.949219 " fill-opacity="1" fill-rule="nonzero"/></g></g></g><g clip-path="url(#e3f052558f)"><g clip-path="url(#ade8673f80)"><g clip-path="url(#e9587b0ad7)"><path fill="#4f362a" d="M 263.929688 141.550781 C 265.289062 140.433594 269.160156 147.320312 272.410156 154.304688 C 272.660156 154.84375 273.542969 155.976562 272.558594 156.273438 C 268.796875 157.40625 261.886719 159.355469 248.777344 161.097656 C 248.125 161.011719 247.511719 160.152344 246.863281 158.5625 C 246.574219 157.84375 246.671875 157.167969 247.242188 156.5 C 247.007812 156.613281 248.078125 155.28125 250.742188 152.792969 C 257.332031 146.632812 259.023438 145.550781 262.484375 142.671875 Z M 263.929688 141.550781 " fill-opacity="1" fill-rule="nonzero"/></g></g></g><g clip-path="url(#da82865872)"><g clip-path="url(#a67c7ecd4b)"><g clip-path="url(#d9cf1154c5)"><path fill="#4f362a" d="M 326.222656 126.75 L 326.625 126.570312 L 329.984375 125.316406 C 330.796875 124.964844 331.410156 124.671875 331.832031 124.433594 C 333.410156 123.570312 334.75 122.613281 335.859375 121.558594 C 336.597656 120.828125 337.144531 120.214844 337.507812 119.714844 C 337.855469 119.230469 338.167969 118.78125 338.445312 118.363281 C 338.46875 117.90625 338.449219 117.605469 338.386719 117.457031 C 338.371094 116.878906 338.324219 116.324219 338.25 115.796875 C 338.183594 115.871094 338.125 115.9375 338.070312 115.996094 L 337.035156 117.132812 L 334.988281 119.25 C 333.679688 120.714844 332.824219 121.636719 332.421875 122.015625 C 331.492188 122.949219 330.300781 123.980469 328.847656 125.101562 C 327.914062 125.8125 327.039062 126.363281 326.222656 126.75 Z M 326.222656 126.75 " fill-opacity="1" fill-rule="nonzero"/></g></g></g><g clip-path="url(#11277460b1)"><g clip-path="url(#e3e5081115)"><g clip-path="url(#389544f29c)"><path fill="#4f362a" d="M 299.027344 138.757812 L 299.035156 138.753906 C 304.910156 136.78125 309.421875 134.847656 312.574219 132.957031 C 317.46875 130.15625 321.667969 127.140625 325.171875 123.90625 C 328.613281 120.605469 331.554688 116.964844 334 112.984375 C 334.601562 111.988281 335.128906 111.066406 335.582031 110.210938 C 335.488281 110.121094 335.394531 110.035156 335.296875 109.949219 L 335.730469 108.394531 C 335.566406 108.21875 335.398438 108.046875 335.230469 107.878906 C 334.394531 109.125 333.367188 110.535156 332.144531 112.113281 C 329.855469 115.046875 327.257812 117.851562 324.351562 120.523438 C 319.285156 125.042969 315.386719 128.257812 312.660156 130.164062 C 308.515625 133.136719 303.96875 136 299.023438 138.753906 Z M 299.027344 138.757812 " fill-opacity="1" fill-rule="nonzero"/></g></g></g><g clip-path="url(#a4e41a0c69)"><g clip-path="url(#b9a085ae6c)"><g clip-path="url(#9a96ed821a)"><path fill="#4f362a" d="M 318.03125 112.785156 L 318.039062 112.78125 L 318.695312 112.207031 C 319.558594 111.621094 320.425781 111.046875 321.296875 110.488281 C 322.613281 109.636719 323.894531 108.882812 325.144531 108.21875 C 328.210938 106.605469 329.78125 105.808594 329.84375 105.832031 L 331.707031 105.035156 C 331.335938 104.796875 330.953125 104.5625 330.5625 104.339844 C 330.496094 104.351562 330.425781 104.363281 330.359375 104.375 C 329.128906 104.597656 327.886719 104.988281 326.632812 105.550781 C 325.382812 106.117188 324.175781 106.902344 323.003906 107.910156 C 321.332031 109.328125 319.675781 110.953125 318.03125 112.785156 Z M 318.03125 112.785156 " fill-opacity="1" fill-rule="nonzero"/></g></g></g><g clip-path="url(#417a7db61c)"><g clip-path="url(#ef114fed00)"><g clip-path="url(#9092a7180e)"><path fill="#4f362a" d="M 295.351562 125.332031 L 295.359375 125.328125 L 296.125 124.410156 C 302.050781 118.617188 305.359375 115.429688 306.050781 114.839844 C 308.472656 112.617188 310.816406 110.710938 313.085938 109.125 C 314.980469 107.734375 316.882812 106.5625 318.792969 105.605469 C 319.507812 105.195312 321.929688 104.097656 326.054688 102.308594 C 325.632812 102.15625 325.222656 102.011719 324.820312 101.875 C 324.5 101.765625 324.183594 101.664062 323.875 101.566406 C 322.796875 101.84375 321.636719 102.183594 320.394531 102.582031 C 317.199219 103.648438 314.472656 104.886719 312.214844 106.300781 C 309.714844 107.855469 306.980469 110.335938 304 113.738281 C 301.378906 116.6875 298.496094 120.554688 295.351562 125.332031 Z M 295.351562 125.332031 " fill-opacity="1" fill-rule="nonzero"/></g></g></g><g clip-path="url(#75891cd83e)"><g clip-path="url(#b37aa6b79d)"><g clip-path="url(#9ee71846c1)"><path fill="#4f362a" d="M 339.828125 99.773438 L 339.855469 99.777344 C 339.929688 99.78125 340.082031 99.730469 340.308594 99.621094 C 342.878906 98.058594 344.8125 96.957031 346.109375 96.316406 C 347.542969 95.609375 349.003906 95.03125 350.496094 94.589844 C 351.554688 94.273438 352.597656 94.039062 353.625 93.886719 C 353.132812 92.308594 352.683594 91.019531 352.273438 90.015625 C 351.976562 90.125 351.65625 90.242188 351.308594 90.371094 C 350.578125 90.675781 349.875 91.015625 349.195312 91.394531 C 347.316406 92.441406 345.378906 93.871094 343.375 95.6875 C 342.429688 96.542969 341.65625 97.304688 341.058594 97.972656 C 340.761719 98.308594 340.507812 98.617188 340.300781 98.902344 C 340.089844 99.191406 339.925781 99.453125 339.804688 99.691406 C 339.789062 99.730469 339.796875 99.757812 339.828125 99.773438 Z M 339.828125 99.773438 " fill-opacity="1" fill-rule="nonzero"/></g></g></g><g clip-path="url(#aa255b1187)"><path fill="#4f362a" d="M 188.867188 292.515625 C 202.53125 292.515625 215.820312 290.269531 228.359375 285.59375 C 237.34375 282.222656 244.082031 278.855469 249.132812 274.921875 C 253.625 271.554688 255.871094 267.4375 255.871094 262.945312 C 255.871094 259.761719 254.5625 256.394531 251.753906 253.023438 L 233.972656 230.753906 C 228.546875 223.828125 221.808594 222.328125 214.882812 226.449219 C 206.460938 231.5 197.289062 234.121094 187.742188 234.121094 C 172.769531 234.121094 160.792969 229.253906 150.871094 219.335938 C 140.953125 209.414062 136.273438 197.0625 136.273438 181.902344 C 136.273438 166.929688 141.140625 154.761719 151.058594 144.65625 C 161.167969 134.359375 173.519531 129.308594 188.492188 129.308594 C 198.414062 129.308594 207.210938 131.742188 214.882812 136.792969 C 217.316406 138.292969 219.75 139.039062 222.371094 139.039062 C 225.363281 139.039062 230.042969 137.917969 234.160156 132.488281 L 251.566406 110.214844 C 254.375 106.660156 255.683594 103.480469 255.683594 100.484375 C 255.683594 92.4375 247.261719 87.007812 240.898438 83.640625 C 225.175781 75.402344 207.769531 71.097656 188.867188 71.097656 C 157.984375 71.097656 131.59375 81.953125 110.257812 103.480469 C 88.917969 124.816406 78.0625 151.207031 78.0625 181.527344 C 78.0625 212.035156 88.917969 238.425781 110.445312 260.136719 C 131.96875 281.472656 158.171875 292.515625 188.867188 292.515625 Z M 188.867188 292.515625 " fill-opacity="1" fill-rule="nonzero"/></g><path fill="#4f362a" d="M 240.710938 119.386719 C 233.039062 125.378906 235.285156 138.667969 238.464844 145.964844 C 242.210938 153.828125 249.507812 162.0625 242.769531 171.234375 C 236.96875 178.53125 227.796875 174.601562 226.300781 165.992188 C 225.175781 158.132812 229.292969 150.644531 229.855469 142.972656 C 230.417969 137.167969 230.980469 131.554688 229.667969 125.9375 C 228.359375 120.136719 224.804688 114.894531 223.867188 109.28125 C 222.742188 102.355469 228.734375 99.175781 234.535156 103.292969 C 237.53125 105.164062 243.332031 115.644531 240.335938 118.640625 " fill-opacity="1" fill-rule="nonzero"/><path fill="#cf8673" d="M 229.480469 159.253906 C 229.480469 159.253906 226.863281 173.292969 238.464844 171.609375 C 238.464844 171.421875 225.175781 176.285156 229.480469 159.253906 Z M 229.480469 159.253906 " fill-opacity="1" fill-rule="nonzero"/><path fill="#4f362a" d="M 148.4375 265.941406 C 140.765625 271.929688 143.011719 285.03125 146.191406 292.515625 C 149.9375 300.378906 157.234375 308.613281 150.496094 317.785156 C 144.695312 325.085938 135.523438 321.152344 134.027344 312.542969 C 132.902344 304.683594 137.023438 297.195312 137.582031 289.523438 C 138.144531 283.71875 138.707031 278.105469 137.394531 272.492188 C 136.085938 266.6875 132.53125 261.449219 131.59375 255.832031 C 130.46875 248.90625 136.460938 245.726562 142.261719 249.84375 C 145.257812 251.714844 151.058594 262.195312 148.0625 265.191406 " fill-opacity="1" fill-rule="nonzero"/><path fill="#cf8673" d="M 137.207031 305.617188 C 137.207031 305.617188 134.589844 319.65625 146.191406 317.972656 C 146.191406 317.972656 132.714844 322.652344 137.207031 305.617188 Z M 137.207031 305.617188 " fill-opacity="1" fill-rule="nonzero"/><path fill="#cf8673" d="M 134.960938 227.945312 L 140.203125 227.570312 L 141.886719 234.871094 L 140.203125 235.429688 Z M 134.960938 227.945312 " fill-opacity="1" fill-rule="nonzero"/><path fill="#cf8673" d="M 92.289062 176.847656 L 95.65625 180.964844 L 90.792969 186.582031 L 89.292969 185.644531 Z M 92.289062 176.847656 " fill-opacity="1" fill-rule="nonzero"/><path fill="#cf8673" d="M 119.613281 212.222656 L 123.359375 208.480469 L 129.347656 212.972656 L 128.410156 214.46875 Z M 119.613281 212.222656 " fill-opacity="1" fill-rule="nonzero"/><path fill="#cf8673" d="M 208.332031 121.445312 L 210.578125 116.765625 L 217.691406 119.011719 L 217.316406 120.699219 Z M 208.332031 121.445312 " fill-opacity="1" fill-rule="nonzero"/><path fill="#cf8673" d="M 133.652344 95.804688 L 138.332031 93.183594 L 143.011719 98.988281 L 141.699219 100.109375 Z M 133.652344 95.804688 " fill-opacity="1" fill-rule="nonzero"/><path fill="#cf8673" d="M 227.796875 96.554688 L 230.605469 101.046875 L 225.175781 106.097656 L 223.867188 104.789062 Z M 227.796875 96.554688 " fill-opacity="1" fill-rule="nonzero"/><path fill="#cf8673" d="M 213.011719 84.574219 L 207.769531 84.199219 L 207.023438 76.714844 L 208.707031 76.527344 Z M 213.011719 84.574219 " fill-opacity="1" fill-rule="nonzero"/><path fill="#cf8673" d="M 125.042969 138.667969 L 127.851562 143.15625 L 122.234375 148.023438 L 120.925781 146.902344 Z M 125.042969 138.667969 " fill-opacity="1" fill-rule="nonzero"/><path fill="#cf8673" d="M 138.707031 269.683594 L 140.015625 264.628906 L 147.503906 265.378906 L 147.316406 267.0625 Z M 138.707031 269.683594 " fill-opacity="1" fill-rule="nonzero"/><path fill="#cf8673" d="M 201.40625 271.554688 L 203.089844 266.6875 L 210.390625 268 L 210.203125 269.683594 Z M 201.40625 271.554688 " fill-opacity="1" fill-rule="nonzero"/><path fill="#cf8673" d="M 216.007812 238.425781 L 216.007812 233.183594 L 223.492188 232.25 L 223.867188 233.933594 Z M 216.007812 238.425781 " fill-opacity="1" fill-rule="nonzero"/><path fill="#cf8673" d="M 162.851562 119.199219 L 163.226562 124.441406 L 155.925781 126.125 L 155.363281 124.441406 Z M 162.851562 119.199219 " fill-opacity="1" fill-rule="nonzero"/><path fill="#cf8673" d="M 137.394531 90.9375 C 137.394531 90.9375 156.300781 68.476562 193.546875 77.089844 C 193.359375 77.089844 157.796875 75.777344 137.394531 90.9375 Z M 137.394531 90.9375 " fill-opacity="1" fill-rule="nonzero"/></svg>